<svg xmlns="http://www.w3.org/2000/svg" width="30" height="23" viewBox="0 0 30 23">
  <g id="like-card" transform="translate(-22 -162)">
    <rect id="Rectangle_361" data-name="Rectangle 361" width="30" height="23" rx="1" transform="translate(22 162)" fill="#fff"/>
    <path id="Path_150" data-name="Path 150" d="M152.351,168.4c-.054.077-.069.119-.112.189a2.368,2.368,0,0,0-.169.728l.019,2.322a1.555,1.555,0,0,1-.123.755,10.3,10.3,0,0,1-1.251,2.318,2.53,2.53,0,0,1-.477.774,3.7,3.7,0,0,1-.535.7.884.884,0,0,1-.262.343l-.192-.2c-.327-.316-.6-.127-.851-.239a2.287,2.287,0,0,1-.651.012,3.284,3.284,0,0,1-.986-.05,2.142,2.142,0,0,1-.547.015c-1.305-.012-2.541-.023-3.846.042-1.009.119-1.309.25-1.328,1.324-.012.447.139,2.314.073,2.537l.012.031.012.035.054.793,0,.308a6.109,6.109,0,0,1,.115,1.14v.462a5.335,5.335,0,0,1,.119,1.14,2.4,2.4,0,0,1,.035.682,3.072,3.072,0,0,1,.108.812,3.009,3.009,0,0,1,.042.693c.062.092.216,1.39.269,1.629.235.3.181.3.485.52a1.358,1.358,0,0,0,.774.273c1.209.088,2.626.031,3.854.012l.258.015c.123-.073.909-.062,1.147-.108a1.706,1.706,0,0,0,.474-.139c.2-.1.242-.2.381-.281.035-.054.158-.266.189-.3.042-.169.139-.932.169-.986a.855.855,0,0,1,.011-.381l.354.127,1.509.543c.092.05-.1-.062.05.031l.05.039a2.209,2.209,0,0,1,.681.219l.847.235,1.444.154c1.282.073,2.583.1,3.877.065l.732-.058a4.969,4.969,0,0,0,.893-.162.96.96,0,0,0,.37-.166c.131-.1.166-.192.289-.254.015-.1.008-.1.1-.185.042-.158.1-.308.146-.485a2.281,2.281,0,0,1,.089-.524,1.076,1.076,0,0,1,0-.443l-.127-.589a1.885,1.885,0,0,0,.35-.192c.481-.412.358-.8.508-1.024l.015-.558a3.487,3.487,0,0,0-.108-.785,1.419,1.419,0,0,0,.747-.824l.015-.027.015-.027.035-.377L162.488,180l-.058-.277.512-.219a1.507,1.507,0,0,1,.293-.266c.027-.108.092-.2.143-.343s.054-.246.092-.377a4.855,4.855,0,0,0-.135-2.341c-.089-.073-.258-.258-.343-.343a1.245,1.245,0,0,0-.774-.162c-.293,0-.585,0-.878,0-.6,0-1.193,0-1.79,0-1.147,0-2.468.065-3.588,0-.027-.046-.031-.015.027-.042.012-.05.312-.828.358-.9l.2-.97a1.848,1.848,0,0,1,.031-.558l0-.912-.031-.577-.192-.87a2.428,2.428,0,0,1-.177-.631c-.085-.062-.065-.046-.1-.158a4.013,4.013,0,0,0-.477-.789c-.189-.25-.47-.377-.6-.647a1.5,1.5,0,0,1-.431-.354c-.146-.027-.37-.177-.558-.239a1.822,1.822,0,0,0-.635-.119,1.29,1.29,0,0,0-1.02.5Zm-5.4,16.759a1.185,1.185,0,0,1,.416,2.333,1.185,1.185,0,0,1-.416-2.333Zm.039.489a.691.691,0,0,1,.847.489.7.7,0,1,1-.847-.489Zm2.564-8.255.593-.593a23.308,23.308,0,0,0,1.983-3.053,4.229,4.229,0,0,0,.658-2.418c-.012-.508-.042-1.024-.035-1.528,0-.489.012-.993.377-1.151a1.256,1.256,0,0,1,1.17.331,4.607,4.607,0,0,1,.774.751,6.2,6.2,0,0,1,.493,5.059c-.354.878-1.267,1.22-1.5,1.567.281.058,6.56,0,7.046,0,1.386,0,1.948-.423,1.694,1.833-.131,1.159-.539.72-2.51.982.323.154.72.37,1.09.551.435.208.493.343.431,1.17-.054.689-.273.789-.782.835s-1.051.073-1.571.1a9.547,9.547,0,0,0,1.174.578c.462.235.558.312.4,1.251-.115.693-.462.562-1.151.543-.527-.012-1.136-.073-1.652-.054l.774.35c.639.273,1.19.35,1.286.835s.073,1.386-.5,1.536a15.075,15.075,0,0,1-3.034.2,18.428,18.428,0,0,1-3.966-.366c-1.082-.281-2.067-.828-3.157-1.113-.038-.631.008-1.436.008-2.091,0-.685-.008-1.371-.019-2.06C149.61,180.517,149.521,178.13,149.556,177.4Z" transform="translate(-115.039 -4.9)" fill="#f39b9d" fill-rule="evenodd"/>
  </g>
</svg>
