<svg xmlns="http://www.w3.org/2000/svg" width="36" height="28" viewBox="0 0 36 28">
  <g id="like" transform="translate(-585 -241)">
    <rect id="Rectangle_361" data-name="Rectangle 361" width="36" height="28" rx="1" transform="translate(585 241)" fill="#fff"/>
    <path id="Path_150" data-name="Path 150" d="M154.642,168.507c-.065.093-.083.143-.134.227a2.848,2.848,0,0,0-.2.875l.023,2.792a1.87,1.87,0,0,1-.148.907,12.389,12.389,0,0,1-1.5,2.787,3.043,3.043,0,0,1-.574.931,4.452,4.452,0,0,1-.644.843,1.062,1.062,0,0,1-.315.412l-.231-.241c-.394-.38-.722-.153-1.023-.287a2.749,2.749,0,0,1-.782.014,3.949,3.949,0,0,1-1.185-.06,2.576,2.576,0,0,1-.657.018c-1.569-.014-3.056-.028-4.625.051-1.213.143-1.574.3-1.6,1.593-.014.537.167,2.782.088,3.051l.014.037.014.042.065.954,0,.37a7.35,7.35,0,0,1,.139,1.37v.556a6.416,6.416,0,0,1,.144,1.37,2.888,2.888,0,0,1,.042.819,3.7,3.7,0,0,1,.13.977,3.621,3.621,0,0,1,.051.833c.074.111.259,1.671.324,1.958.282.366.218.366.583.625a1.632,1.632,0,0,0,.931.329c1.454.106,3.158.037,4.634.014l.31.018c.148-.088,1.093-.074,1.38-.13a2.052,2.052,0,0,0,.569-.167c.236-.116.292-.241.458-.338.042-.065.19-.319.227-.356.051-.2.167-1.12.2-1.185a1.029,1.029,0,0,1,.014-.458l.426.153,1.815.653c.111.06-.12-.074.06.037l.06.046a2.656,2.656,0,0,1,.819.264l1.019.282,1.736.185c1.542.088,3.106.116,4.662.079l.88-.069a5.975,5.975,0,0,0,1.074-.194,1.154,1.154,0,0,0,.444-.2c.157-.116.2-.231.347-.306.019-.125.009-.12.12-.222.051-.19.125-.37.176-.583a2.741,2.741,0,0,1,.106-.63,1.293,1.293,0,0,1,0-.532l-.153-.708a2.267,2.267,0,0,0,.421-.231c.579-.5.431-.968.611-1.232l.018-.671a4.194,4.194,0,0,0-.13-.944,1.706,1.706,0,0,0,.9-.991l.019-.032.018-.032.042-.454-.009-1.273-.069-.333.616-.264a1.814,1.814,0,0,1,.352-.319c.032-.13.111-.236.171-.412s.065-.3.111-.454a5.838,5.838,0,0,0-.162-2.815c-.107-.088-.31-.31-.412-.412a1.5,1.5,0,0,0-.931-.194c-.352,0-.7,0-1.056,0-.718,0-1.435,0-2.153,0-1.38,0-2.968.079-4.315,0-.032-.056-.037-.018.032-.051.014-.06.375-1,.431-1.083l.236-1.167a2.223,2.223,0,0,1,.037-.671l0-1.1-.037-.694-.231-1.046a2.92,2.92,0,0,1-.213-.759c-.1-.074-.079-.056-.125-.19a4.826,4.826,0,0,0-.574-.949c-.227-.3-.565-.454-.722-.778a1.809,1.809,0,0,1-.518-.426c-.176-.032-.445-.213-.671-.287a2.192,2.192,0,0,0-.764-.144,1.551,1.551,0,0,0-1.227.607Zm-6.491,20.153a1.425,1.425,0,0,1,.5,2.806,1.425,1.425,0,0,1-.5-2.806Zm.046.588a.831.831,0,0,1,1.018.588.84.84,0,1,1-1.018-.588Zm3.083-9.926.713-.713a28.033,28.033,0,0,0,2.384-3.671,5.085,5.085,0,0,0,.792-2.907c-.014-.611-.051-1.232-.042-1.838,0-.588.014-1.195.454-1.384a1.51,1.51,0,0,1,1.407.4,5.541,5.541,0,0,1,.931.9c1.106,1.426,1.227,4.509.593,6.083-.426,1.056-1.523,1.468-1.806,1.884.338.069,7.889,0,8.472,0,1.667,0,2.343-.509,2.037,2.2-.157,1.394-.648.866-3.019,1.181.389.185.866.444,1.31.662.523.25.593.412.519,1.407-.065.829-.329.949-.94,1s-1.264.088-1.889.12a11.483,11.483,0,0,0,1.412.694c.556.282.671.375.486,1.5-.139.833-.556.676-1.384.653-.634-.014-1.366-.088-1.986-.065l.93.421c.769.329,1.431.421,1.546,1s.088,1.667-.606,1.847a18.131,18.131,0,0,1-3.648.241,22.158,22.158,0,0,1-4.769-.44c-1.3-.338-2.486-1-3.8-1.338-.046-.759.009-1.727.009-2.514,0-.824-.009-1.648-.023-2.477C151.345,183.072,151.239,180.2,151.281,179.322Z" transform="translate(448.961 74.712)" fill="#f39b9d" fill-rule="evenodd"/>
  </g>
</svg>
