<svg xmlns="http://www.w3.org/2000/svg" width="30" height="23" viewBox="0 0 30 23">
  <g id="love-card" transform="translate(-22 -133)">
    <rect id="love-card-2" data-name="love-card" width="30" height="23" rx="1" transform="translate(22 133)" fill="#fff"/>
    <path id="Path_149" data-name="Path 149" d="M140.982,157.727v.812c.011.038.056.56.068.658a9.169,9.169,0,0,0,.458,1.774,12.761,12.761,0,0,0,.955,2.014,18.85,18.85,0,0,0,1.173,1.793c.519.684,1.075,1.413,1.654,2.044.184.2.891,1.011,1.06,1.176l.357.372c.116.128.241.263.365.383s.248.241.376.368.259.24.38.368c.158.169.541.5.752.722l.387.357c.135.117.259.229.387.361.267.267.951.842,1.165,1.071.086.09.289.244.387.357h.034l.755-.707c.357-.3.789-.737,1.15-1.056s.793-.767,1.142-1.079c.47-.421,1.86-1.875,2.341-2.446l.853-.988a18.227,18.227,0,0,0,3.108-5.009,10.9,10.9,0,0,0,.35-1.124,8.362,8.362,0,0,0,.173-.924,1.4,1.4,0,0,1,.041-.342v-.973a3.754,3.754,0,0,1-.068-.5c-.026-.154-.056-.319-.094-.466a4.234,4.234,0,0,0-1.225-2.142,3.631,3.631,0,0,0-.628-.5,5.033,5.033,0,0,0-1.575-.661c-.173-.038-.3-.06-.477-.086-.083-.011-.451-.041-.489-.056h-.7a3.417,3.417,0,0,1-.44.056,5.826,5.826,0,0,0-1.2.293,5.125,5.125,0,0,0-2.33,1.65,4.831,4.831,0,0,0-.567.925c-.045.1-.09.237-.147.334-.049-.086-.1-.24-.143-.338a4.847,4.847,0,0,0-1.567-1.879,5.689,5.689,0,0,0-2.048-.9c-.327-.075-.643-.094-.8-.128l-.041-.015h-.883l-.485.071a4.951,4.951,0,0,0-2.315,1c-.06.045-.09.083-.15.132a4.291,4.291,0,0,0-1.338,2.27,5.909,5.909,0,0,0-.135.827Z" transform="translate(-113.982 -18.296)" fill="#f39b9d" fill-rule="evenodd"/>
  </g>
</svg>
