<svg xmlns="http://www.w3.org/2000/svg" width="36" height="28" viewBox="0 0 36 28">
  <g id="love" transform="translate(-585 -173)">
    <rect id="Rectangle_360" data-name="Rectangle 360" width="36" height="28" rx="1" transform="translate(585 173)" fill="#fff"/>
    <path id="Path_149" data-name="Path 149" d="M140.982,158.754v1c.014.046.069.69.083.81a11.3,11.3,0,0,0,.565,2.185,15.72,15.72,0,0,0,1.176,2.482,23.215,23.215,0,0,0,1.444,2.208c.639.843,1.324,1.741,2.037,2.519.227.25,1.1,1.245,1.306,1.449l.44.458c.143.157.3.324.449.472s.306.3.463.454.319.3.468.454c.194.208.667.62.926.889l.477.44c.167.144.319.282.477.444.329.329,1.171,1.037,1.435,1.319.106.111.356.3.477.44h.042l.931-.87c.44-.375.972-.907,1.417-1.3s.977-.944,1.407-1.329c.579-.518,2.292-2.31,2.884-3.014l1.051-1.218a22.454,22.454,0,0,0,3.829-6.171,13.428,13.428,0,0,0,.431-1.384,10.3,10.3,0,0,0,.213-1.139,1.727,1.727,0,0,1,.051-.421v-1.2a4.623,4.623,0,0,1-.083-.616c-.032-.19-.07-.394-.116-.574a5.216,5.216,0,0,0-1.509-2.639,4.474,4.474,0,0,0-.773-.616,6.2,6.2,0,0,0-1.94-.815c-.213-.046-.375-.074-.588-.106-.1-.014-.556-.051-.6-.069h-.861a4.21,4.21,0,0,1-.542.069,7.175,7.175,0,0,0-1.477.361,6.314,6.314,0,0,0-2.87,2.032,5.952,5.952,0,0,0-.7,1.139c-.056.12-.111.292-.181.412-.06-.106-.12-.3-.176-.417a5.97,5.97,0,0,0-1.931-2.315,7.009,7.009,0,0,0-2.523-1.106c-.4-.093-.792-.116-.991-.157l-.051-.018h-1.088l-.6.088a6.1,6.1,0,0,0-2.852,1.231c-.074.056-.111.1-.185.162a5.286,5.286,0,0,0-1.648,2.8,7.283,7.283,0,0,0-.167,1.018Z" transform="translate(450.018 21.704)" fill="#f39b9d" fill-rule="evenodd"/>
  </g>
</svg>
