<svg xmlns="http://www.w3.org/2000/svg" width="36" height="28" viewBox="0 0 36 28">
  <g id="share" transform="translate(-585 -311)">
    <rect id="Rectangle_362" data-name="Rectangle 362" width="36" height="28" rx="1" transform="translate(585 311)" fill="#fff"/>
    <path id="Path_151" data-name="Path 151" d="M141.865,187.47h9.523c0,.944-.384,1.755-1.935,1.755H142.68v16.6h22.834v-5.236c0-1.727.625-2.116,1.755-2.116v8.167a.933.933,0,0,1-.935.94H141.865a.933.933,0,0,1-.94-.94V188.409a.94.94,0,0,1,.94-.94Zm20.454-4.463c-.2-.116-.38-.065-.375.144v4.134c-7.07.329-10.486,5.046-12.385,10.477-.1.278-.384,2.4,1.162.852,2.8-2.8,6.347-5.333,11.222-5.324v2.792a.261.261,0,0,0,.4.19l10.046-6.218a.324.324,0,0,0,0-.593Q167.358,186.231,162.319,183.007Z" transform="translate(448.075 129.324)" fill="#f39b9d" fill-rule="evenodd"/>
  </g>
</svg>
