<svg xmlns="http://www.w3.org/2000/svg" width="30" height="24" viewBox="0 0 30 24">
  <g id="share-card" transform="translate(-22 -206)">
    <rect id="Rectangle_362" data-name="Rectangle 362" width="30" height="24" rx="1" transform="translate(22 206)" fill="#fff"/>
    <path id="Path_151" data-name="Path 151" d="M141.707,186.708h7.919c0,.785-.319,1.459-1.609,1.459h-5.633v13.8h18.988v-4.354c0-1.436.52-1.759,1.459-1.759v6.791a.776.776,0,0,1-.778.782H141.707a.776.776,0,0,1-.782-.782V187.489a.782.782,0,0,1,.782-.782ZM158.716,183c-.169-.1-.316-.054-.312.119v3.438c-5.879.273-8.72,4.2-10.3,8.713-.081.231-.32,1.994.966.708,2.329-2.329,5.278-4.435,9.333-4.428v2.322a.217.217,0,0,0,.335.158l8.355-5.171a.269.269,0,0,0,0-.493Q162.907,185.678,158.716,183Z" transform="translate(-116.925 25.054)" fill="#f39b9d" fill-rule="evenodd"/>
  </g>
</svg>
