<svg xmlns="http://www.w3.org/2000/svg" width="674.083" height="448.614" viewBox="0 0 674.083 448.614">
  <g id="image-upload" transform="translate(-223.26 -329.756)">
    <g id="Rectangle_196" data-name="Rectangle 196" transform="translate(223.26 329.756)" fill="#fcfcfc" stroke="#f39b9d" stroke-width="0.22">
      <path d="M1.3,0H672.779a1.3,1.3,0,0,1,1.3,1.3V447.31a1.3,1.3,0,0,1-1.3,1.3H1.3a1.3,1.3,0,0,1-1.3-1.3V1.3A1.3,1.3,0,0,1,1.3,0Z" stroke="none"/>
      <path d="M1.3.11H672.779A1.193,1.193,0,0,1,673.973,1.3V447.31a1.193,1.193,0,0,1-1.193,1.193H1.3A1.194,1.194,0,0,1,.11,447.31V1.3A1.193,1.193,0,0,1,1.3.11Z" fill="none"/>
    </g>
  </g>
</svg>
