<svg xmlns="http://www.w3.org/2000/svg" width="674.083" height="448.614" viewBox="0 0 674.083 448.614">
  <g id="new-image-upload" transform="translate(-223 -353)">
    <g id="Group_147" data-name="Group 147">
      <g id="Rectangle_196" data-name="Rectangle 196" transform="translate(223 353)" fill="#fcfcfc" stroke="#f39b9d" stroke-width="0.22">
        <path d="M1.3,0H672.779a1.3,1.3,0,0,1,1.3,1.3V447.31a1.3,1.3,0,0,1-1.3,1.3H1.3a1.3,1.3,0,0,1-1.3-1.3V1.3A1.3,1.3,0,0,1,1.3,0Z" stroke="none"/>
        <path d="M1.3.11H672.779A1.193,1.193,0,0,1,673.973,1.3V447.31a1.193,1.193,0,0,1-1.193,1.193H1.3A1.194,1.194,0,0,1,.11,447.31V1.3A1.193,1.193,0,0,1,1.3.11Z" fill="none"/>
      </g>
      <text id="UPLOAD_PREVIEW_IMAGE_JPG_File_1160_X_772_px" data-name="UPLOAD PREVIEW IMAGE JPG File
1160 X 772 px" transform="translate(404 548)" fill="#707070" font-size="20" font-family="Tahoma"><tspan x="4.327" y="20">UPLOAD PREVIEW IMAGE JPG File</tspan><tspan x="92.628" y="44">1160 X 772 px</tspan></text>
    </g>
  </g>
</svg>
