<svg xmlns="http://www.w3.org/2000/svg" width="23.747" height="23.887" viewBox="0 0 23.747 23.887">
  <g id="Group_86" data-name="Group 86" transform="translate(-1035.046 -11.073)">
    <path id="Path_3" data-name="Path 3" d="M255.079,35.054l.41.171c.046.017.222.071.263.088l.13.042a.708.708,0,0,1,.13.038l-.732,2.379c-1.254.385-1.538.247-2.2,1.162a2.562,2.562,0,0,0,2.387,3.984c1.2-.117,1.551-.769,2.115-1.522l7.993,0a4.244,4.244,0,0,0,1.007,1.175,2.519,2.519,0,0,0,3.825-2.429c-.2-1.773-3.223-3.762-5-.247l-7.7-.008a5.894,5.894,0,0,0-.974-1.618l.961-3,13.231-.23,1.246-12.508c-5.058-.865-12.424.765-16.856-.234-4.791-.677-3.273-1.083-4.051-2.517-1.041-1.915-4.063.418-2.3,1.948.531.46.585.251,1.2.372a2.339,2.339,0,0,1,1.1.564c1.045.707.819.627,1.179,2.011Z" transform="translate(786.62 -7.988)" fill="#ccc" fill-rule="evenodd"/>
  </g>
</svg>
