<svg id="gs-mobile" xmlns="http://www.w3.org/2000/svg" width="129.755" height="44.182" viewBox="0 0 129.755 44.182">
  <g id="Group_103" data-name="Group 103">
    <path id="Path_9" data-name="Path 9" d="M9.181,187.123H138.936v39.655a4.539,4.539,0,0,1-4.527,4.527H13.708a4.539,4.539,0,0,1-4.527-4.527Z" transform="translate(-9.181 -187.123)" fill="#db000e" fill-rule="evenodd"/>
  </g>
  <path id="Path_10" data-name="Path 10" d="M26.369,204.369a6.659,6.659,0,0,1-2.438,2.036,7.328,7.328,0,0,1-3.208.676,6.969,6.969,0,0,1-5.522-2.434,9.391,9.391,0,0,1-2.111-6.383,9.213,9.213,0,0,1,2.186-6.488,7.679,7.679,0,0,1,5.936-2.374,7.251,7.251,0,0,1,4.681,1.454,6.031,6.031,0,0,1,2.171,4.05H25.847a4.04,4.04,0,0,0-1.518-2.618,4.993,4.993,0,0,0-3.118-.928,5.279,5.279,0,0,0-4.256,1.784,7.548,7.548,0,0,0-1.51,5.026,7.676,7.676,0,0,0,1.5,5.026,5.039,5.039,0,0,0,4.11,1.811,5.061,5.061,0,0,0,3.783-1.446,5.318,5.318,0,0,0,1.413-3.888v-.218H20.993v-1.89h7.352v9.05H26.861l-.492-2.247Zm7.506-12.562v5.688h3.892a4.949,4.949,0,0,0,2.983-.684,2.735,2.735,0,0,0,.872-2.28,2.477,2.477,0,0,0-.823-2.111,5.357,5.357,0,0,0-3.032-.612Zm-2.239-1.961h6.51a14.348,14.348,0,0,1,2.325.135,4.6,4.6,0,0,1,1.337.455,3.968,3.968,0,0,1,1.615,1.619,5.106,5.106,0,0,1,.552,2.434,4.4,4.4,0,0,1-.582,2.318,3.907,3.907,0,0,1-1.728,1.51,2.316,2.316,0,0,1,1.4.92,5,5,0,0,1,.515,2.2l.2,2.765a4.3,4.3,0,0,0,.233,1.326,1.118,1.118,0,0,0,.53.624v.466H41.9a5.882,5.882,0,0,1-.447-2.243v-.064l-.139-2.19a3.164,3.164,0,0,0-.714-2.186,5.589,5.589,0,0,0-3.02-.5H33.9v7.183H31.636v-16.77Zm18.475,9.8h5.226l-2.6-7.4-2.63,7.4Zm-4.854,6.972,6.232-16.77H54l6.255,16.77H57.782L56.005,201.6H49.4l-1.788,5.015Zm19.012-9.095H68.09a4.55,4.55,0,0,0,2.784-.639,2.671,2.671,0,0,0,.789-2.19,2.639,2.639,0,0,0-.781-2.145,4.139,4.139,0,0,0-2.618-.65H64.27v5.624Zm-2.284,9.095v-16.77h6.176a13.436,13.436,0,0,1,2.292.147,4.581,4.581,0,0,1,1.4.492,3.71,3.71,0,0,1,1.57,1.649,5.626,5.626,0,0,1,.548,2.566,5.308,5.308,0,0,1-.548,2.468,4.11,4.11,0,0,1-3.013,2.224,15.829,15.829,0,0,1-2.682.158H64.27v7.066Zm14.692,0v-16.77h2.284v6.882h8.7v-6.882h2.284v16.77H87.663v-7.859h-8.7v7.859Zm16.913,0v-16.77h2.284v16.77Zm17.675-6.229h2.216a6.836,6.836,0,0,1-2.092,4.88,7.05,7.05,0,0,1-5.015,1.814,6.831,6.831,0,0,1-5.552-2.412,10.155,10.155,0,0,1-2.01-6.687,8.975,8.975,0,0,1,2.1-6.262A7.311,7.311,0,0,1,106.6,189.4a7.169,7.169,0,0,1,4.662,1.469,5.761,5.761,0,0,1,2.1,4.012h-2.239a4.013,4.013,0,0,0-1.514-2.558,5.074,5.074,0,0,0-3.111-.894,4.74,4.74,0,0,0-3.952,1.788,8.006,8.006,0,0,0-1.409,5.045,7.741,7.741,0,0,0,1.465,4.932,5.029,5.029,0,0,0,7.25.579A4.818,4.818,0,0,0,111.266,200.387Z" transform="translate(1.592 -180.838)" fill="#fff" fill-rule="evenodd"/>
  <path id="Path_11" data-name="Path 11" d="M18.651,199.495h.815a1.441,1.441,0,0,0,.455,1.082,1.66,1.66,0,0,0,1.172.406,1.886,1.886,0,0,0,1.146-.308.977.977,0,0,0,.417-.834q0-.716-1.57-1.089l-.143-.034a4.147,4.147,0,0,1-1.683-.672,1.351,1.351,0,0,1-.409-1.056,1.662,1.662,0,0,1,.612-1.341,2.454,2.454,0,0,1,1.623-.507,2.359,2.359,0,0,1,1.63.53,1.874,1.874,0,0,1,.6,1.461l-.808,0a1.306,1.306,0,0,0-.428-.958,1.55,1.55,0,0,0-1.052-.334,1.663,1.663,0,0,0-1,.274.85.85,0,0,0-.376.725q0,.721,1.548,1.078l.353.086.09.019a3.507,3.507,0,0,1,1.337.526,1.334,1.334,0,0,1,.383.515,1.709,1.709,0,0,1,.131.676,1.772,1.772,0,0,1-.646,1.443,2.669,2.669,0,0,1-1.751.533,2.532,2.532,0,0,1-1.773-.575,2.253,2.253,0,0,1-.68-1.649Zm6.1-.308v-3.881h.853v3.888a1.85,1.85,0,0,0,.387,1.3,1.554,1.554,0,0,0,1.2.421,1.571,1.571,0,0,0,1.2-.425,1.836,1.836,0,0,0,.4-1.292v-3.888h.849v3.881a2.563,2.563,0,0,1-.646,1.9,2.593,2.593,0,0,1-1.9.646,2.275,2.275,0,0,1-1.758-.639,2.727,2.727,0,0,1-.586-1.9Zm7.288-1.022h1.424a1.711,1.711,0,0,0,1.037-.237,1,1,0,0,0,.293-.815.983.983,0,0,0-.293-.8,1.531,1.531,0,0,0-.973-.244H32.044v2.1Zm-.853,3.389v-6.247h2.3a4.851,4.851,0,0,1,.853.056,1.619,1.619,0,0,1,.522.18,1.37,1.37,0,0,1,.586.616,2.113,2.113,0,0,1,.2.954,1.99,1.99,0,0,1-.2.92,1.528,1.528,0,0,1-1.123.83,6.187,6.187,0,0,1-1,.056H32.044v2.633Zm6.563-3.389h1.424a1.7,1.7,0,0,0,1.037-.237,1,1,0,0,0,.3-.815.983.983,0,0,0-.293-.8,1.544,1.544,0,0,0-.977-.244H37.754v2.1Zm-.853,3.389v-6.247h2.3a4.822,4.822,0,0,1,.853.056,1.641,1.641,0,0,1,.526.18,1.382,1.382,0,0,1,.582.616,2.113,2.113,0,0,1,.207.954,1.99,1.99,0,0,1-.207.92,1.528,1.528,0,0,1-1.123.83,6.124,6.124,0,0,1-1,.056H37.754v2.633Zm5.714,0v-6.247h.86v5.458h3.111v.789Zm4.891,0v-6.247h4.455v.774H48.347v1.867h3.336v.732H48.347v2.093h3.685v.781Zm6.574-5.323v5.323H53.3v-6.247h1.213l1.552,4.782c.045.135.079.24.1.316s.038.139.049.2c.023-.1.045-.2.068-.278s.049-.161.075-.233l1.6-4.782h1.221v6.247h-.826V196.23c-.023.09-.041.18-.068.274s-.053.184-.079.274l-1.608,4.775h-.8l-1.574-4.775c-.026-.079-.053-.165-.075-.255s-.045-.188-.064-.293Zm6.668,5.323v-6.247H65.2v.774h-3.61v1.867h3.336v.732H61.593v2.093h3.685v.781Zm5.785,0v-6.247h.932l2.923,4.538c.064.1.12.192.169.282a1.527,1.527,0,0,1,.113.244v-5.064h.808v6.247h-.92l-2.983-4.6a2.5,2.5,0,0,1-.124-.218c-.038-.079-.075-.158-.109-.244v5.064Zm7.9,0v-5.492H72.458v-.755h4.8v.755H75.283v5.492Z" transform="translate(16.925 -165.02)" fill="#fff" fill-rule="evenodd"/>
</svg>
