<svg xmlns="http://www.w3.org/2000/svg" width="21.962" height="20.136" viewBox="0 0 21.962 20.136">
  <g id="like-mobile" transform="translate(-283.591 -442.325)">
    <path id="Path_77" data-name="Path 77" d="M260.027,41.511c-.053.075-.071.116-.113.184a2.419,2.419,0,0,0-.162.71l.019,2.265a1.586,1.586,0,0,1-.12.733,10.3,10.3,0,0,1-1.221,2.265,2.591,2.591,0,0,1-.466.755,3.787,3.787,0,0,1-.526.684.81.81,0,0,1-.255.331L257,49.246c-.319-.312-.582-.128-.83-.237a2.2,2.2,0,0,1-.631.015,3.217,3.217,0,0,1-.965-.053,1.928,1.928,0,0,1-.533.019c-1.27-.011-2.479-.026-3.749.041-.988.116-1.281.24-1.3,1.289-.007.44.135,2.262.075,2.479l.011.03.008.03.053.774,0,.3a5.939,5.939,0,0,1,.116,1.108l0,.455a5.191,5.191,0,0,1,.117,1.112,2.213,2.213,0,0,1,.034.665,2.717,2.717,0,0,1,.105.793,2.9,2.9,0,0,1,.041.672c.064.094.21,1.356.267,1.593.225.3.173.3.47.507a1.325,1.325,0,0,0,.755.267c1.18.086,2.566.026,3.764.011l.252.011a10.37,10.37,0,0,1,1.116-.1,1.8,1.8,0,0,0,.462-.135c.192-.094.237-.2.372-.278.034-.049.154-.259.184-.289.041-.162.139-.905.165-.958a.9.9,0,0,1,.011-.372l.349.12,1.469.533c.09.045-.1-.064.049.03l.049.038a2.156,2.156,0,0,1,.665.214l.826.229,1.409.146c1.255.075,2.521.1,3.783.068l.714-.06a4.786,4.786,0,0,0,.872-.154A1.014,1.014,0,0,0,267.9,60c.124-.094.158-.188.278-.252.019-.1.011-.094.1-.177.041-.158.105-.3.143-.473a2.4,2.4,0,0,1,.086-.511,1.116,1.116,0,0,1,0-.432l-.124-.575a1.942,1.942,0,0,0,.342-.188c.47-.4.349-.785.5-1l.019-.541a3.588,3.588,0,0,0-.109-.766,1.391,1.391,0,0,0,.729-.808l.015-.026.019-.023.03-.372-.008-1.029-.056-.27.5-.214a1.338,1.338,0,0,1,.282-.259c.026-.105.09-.2.139-.334s.056-.244.09-.368a4.755,4.755,0,0,0-.128-2.288,4.038,4.038,0,0,1-.338-.334,1.254,1.254,0,0,0-.755-.158q-.428.006-.857,0c-.582,0-1.165,0-1.747,0-1.116,0-2.408.064-3.5,0-.026-.045-.026-.015.026-.041.011-.049.3-.811.349-.879l.192-.947a1.691,1.691,0,0,1,.034-.545l0-.89-.03-.564-.192-.849a2.506,2.506,0,0,1-.173-.62c-.083-.056-.064-.045-.1-.15a3.811,3.811,0,0,0-.466-.77c-.184-.244-.455-.368-.586-.631a1.472,1.472,0,0,1-.421-.349c-.139-.023-.361-.169-.541-.229a1.819,1.819,0,0,0-.624-.116,1.224,1.224,0,0,0-.992.492ZM254.76,57.864a1.156,1.156,0,0,1,.4,2.277,1.156,1.156,0,0,1-.4-2.277Zm.038.477a.673.673,0,0,1,.823.473.68.68,0,1,1-.823-.473Zm2.5-8.058.579-.575a23.163,23.163,0,0,0,1.938-2.979,4.129,4.129,0,0,0,.639-2.363c-.011-.492-.041-1-.034-1.488s.011-.969.368-1.123c.432-.188.905.139,1.146.323a4.8,4.8,0,0,1,.755.733,6.049,6.049,0,0,1,.477,4.936c-.346.857-1.232,1.191-1.465,1.529.274.056,6.4,0,6.875,0,1.352,0,1.9-.413,1.653,1.784-.128,1.134-.526.7-2.449.962.316.15.7.361,1.063.533.424.207.481.334.421,1.142-.049.676-.263.77-.763.819s-1.026.071-1.529.1a9.819,9.819,0,0,0,1.142.563c.451.229.549.3.4,1.221-.113.676-.455.545-1.123.53-.518-.011-1.112-.075-1.615-.053l.755.342c.624.267,1.165.342,1.255.815s.075,1.352-.492,1.5a14.678,14.678,0,0,1-2.957.2,17.763,17.763,0,0,1-3.873-.361c-1.056-.274-2.017-.8-3.08-1.082-.038-.616.011-1.4.011-2.04,0-.669-.011-1.341-.023-2.01C257.352,53.33,257.266,51,257.3,50.283Z" transform="translate(34.605 401.306)" fill="#f39b9d" fill-rule="evenodd"/>
  </g>
</svg>
