<svg xmlns="http://www.w3.org/2000/svg" width="24.347" height="22.324" viewBox="0 0 24.347 22.324">
  <g id="Group_86" data-name="Group 86" transform="translate(-557.639 -171.067)">
    <path id="Path_6" data-name="Path 6" d="M146.108,41.565c-.058.083-.075.129-.121.2a2.561,2.561,0,0,0-.183.787l.021,2.511a1.706,1.706,0,0,1-.129.812,11.258,11.258,0,0,1-1.358,2.511,2.856,2.856,0,0,1-.512.837,4.2,4.2,0,0,1-.583.758.973.973,0,0,1-.283.366l-.208-.212c-.354-.346-.646-.142-.921-.262a2.47,2.47,0,0,1-.7.017,3.547,3.547,0,0,1-1.066-.058,2.138,2.138,0,0,1-.591.021c-1.412-.012-2.749-.029-4.161.046-1.091.129-1.416.267-1.437,1.429-.013.487.15,2.507.079,2.749l.013.033.012.033.058.858,0,.337a6.96,6.96,0,0,1,.129,1.229l0,.5a5.741,5.741,0,0,1,.129,1.233,2.6,2.6,0,0,1,.038.737,3.328,3.328,0,0,1,.117.879,3.222,3.222,0,0,1,.046.746c.067.1.233,1.5.291,1.766.254.329.2.329.525.562a1.469,1.469,0,0,0,.837.3c1.308.1,2.84.029,4.169.012l.279.013a11.586,11.586,0,0,1,1.241-.112,2,2,0,0,0,.512-.15c.212-.1.262-.217.412-.308.037-.054.171-.287.2-.321.046-.179.15-1,.183-1.062a.928.928,0,0,1,.013-.412l.383.133,1.633.591c.1.05-.108-.071.054.033l.054.042a2.389,2.389,0,0,1,.737.237l.916.254,1.562.162c1.387.083,2.795.108,4.194.075l.791-.067a5.37,5.37,0,0,0,.966-.171,1.1,1.1,0,0,0,.4-.179c.142-.1.179-.208.312-.279.017-.108.008-.1.108-.2.046-.175.117-.337.158-.525a2.428,2.428,0,0,1,.1-.566,1.163,1.163,0,0,1,0-.479l-.137-.637a2.308,2.308,0,0,0,.379-.208c.521-.446.387-.87.55-1.112l.017-.6a3.734,3.734,0,0,0-.117-.85,1.541,1.541,0,0,0,.808-.9l.017-.029.017-.025.037-.412-.008-1.141-.063-.3.554-.237a1.506,1.506,0,0,1,.317-.287c.029-.117.1-.217.154-.371s.058-.271.1-.408a5.272,5.272,0,0,0-.146-2.536,5.177,5.177,0,0,1-.371-.371,1.4,1.4,0,0,0-.837-.175q-.475.006-.95,0c-.646,0-1.291,0-1.937,0-1.241,0-2.67.071-3.882,0-.029-.05-.033-.017.029-.046.012-.054.337-.9.387-.975l.212-1.05a2,2,0,0,1,.033-.6l0-.987-.029-.625-.212-.941a2.608,2.608,0,0,1-.192-.687c-.092-.062-.071-.05-.112-.167a4.221,4.221,0,0,0-.516-.854c-.2-.271-.508-.408-.65-.7a1.576,1.576,0,0,1-.466-.387c-.158-.025-.4-.187-.6-.254a1.975,1.975,0,0,0-.687-.129,1.372,1.372,0,0,0-1.1.546Zm-5.839,18.13a1.282,1.282,0,0,1,.45,2.524,1.282,1.282,0,0,1-.45-2.524Zm.042.529a.749.749,0,0,1,.916.525.754.754,0,1,1-.916-.525Zm2.774-8.934.641-.637a25.213,25.213,0,0,0,2.145-3.3,4.579,4.579,0,0,0,.712-2.62c-.013-.546-.046-1.108-.037-1.649s.012-1.075.408-1.245c.479-.208,1,.154,1.266.358a4.985,4.985,0,0,1,.837.812,6.708,6.708,0,0,1,.533,5.473c-.383.95-1.37,1.32-1.624,1.7.3.062,7.1,0,7.622,0,1.5,0,2.107-.458,1.832,1.978-.142,1.258-.583.779-2.715,1.066.35.167.779.4,1.179.591.471.229.533.371.467,1.266-.058.75-.3.854-.845.908s-1.137.079-1.7.108a10.965,10.965,0,0,0,1.27.625c.5.254.6.337.437,1.354-.125.75-.5.6-1.245.587-.571-.012-1.229-.083-1.787-.058l.837.379c.691.3,1.287.379,1.391.9s.079,1.5-.546,1.658a16.313,16.313,0,0,1-3.282.221,19.678,19.678,0,0,1-4.29-.4c-1.17-.3-2.237-.891-3.415-1.2-.042-.683.008-1.553.008-2.262,0-.741-.008-1.487-.021-2.228C143.147,54.667,143.047,52.085,143.084,51.29Z" transform="translate(423.768 130.048)" fill="#f39b9d" fill-rule="evenodd"/>
  </g>
</svg>
