<svg xmlns="http://www.w3.org/2000/svg" width="17.632" height="16.168" viewBox="0 0 17.632 16.168">
  <g id="like-product" transform="translate(-444.613 -730.356)">
    <path id="Path_73" data-name="Path 73" d="M142.733,41.414c-.042.06-.054.094-.088.148a1.855,1.855,0,0,0-.133.57l.015,1.819a1.236,1.236,0,0,1-.094.588,8.154,8.154,0,0,1-.983,1.819,2.069,2.069,0,0,1-.371.606,3.04,3.04,0,0,1-.422.549.7.7,0,0,1-.205.265l-.151-.154c-.256-.25-.468-.1-.667-.19a1.788,1.788,0,0,1-.51.012,2.569,2.569,0,0,1-.772-.042,1.548,1.548,0,0,1-.428.015c-1.022-.009-1.991-.021-3.013.033-.79.094-1.025.193-1.041,1.035-.009.353.109,1.816.057,1.991l.009.024.009.024.042.621,0,.244a5.043,5.043,0,0,1,.094.89l0,.365a4.157,4.157,0,0,1,.094.893,1.88,1.88,0,0,1,.027.534,2.411,2.411,0,0,1,.084.636,2.335,2.335,0,0,1,.033.54c.048.075.169,1.089.211,1.279.184.238.142.238.38.407a1.064,1.064,0,0,0,.606.214c.947.069,2.057.021,3.019.009l.2.009a8.393,8.393,0,0,1,.9-.081,1.447,1.447,0,0,0,.371-.109c.154-.075.19-.157.3-.223.027-.039.124-.208.148-.232.033-.13.109-.727.133-.769a.672.672,0,0,1,.009-.3l.277.1,1.182.428c.072.036-.078-.051.039.024l.039.03a1.73,1.73,0,0,1,.534.172l.664.184,1.131.118c1,.06,2.024.078,3.037.054l.573-.048a3.89,3.89,0,0,0,.7-.124.8.8,0,0,0,.29-.13c.1-.075.13-.151.226-.2.012-.078.006-.075.078-.142.033-.127.084-.244.115-.38a1.759,1.759,0,0,1,.069-.41.842.842,0,0,1,0-.347l-.1-.461a1.671,1.671,0,0,0,.274-.151c.377-.323.281-.63.4-.805l.012-.434a2.7,2.7,0,0,0-.084-.615,1.116,1.116,0,0,0,.585-.648l.012-.021.012-.018.027-.3-.006-.826-.045-.217.4-.172a1.091,1.091,0,0,1,.229-.208c.021-.084.072-.157.112-.268s.042-.2.072-.3a3.819,3.819,0,0,0-.106-1.837,3.746,3.746,0,0,1-.268-.268,1.017,1.017,0,0,0-.606-.127q-.344,0-.688,0c-.468,0-.935,0-1.4,0-.9,0-1.933.051-2.811,0-.021-.036-.024-.012.021-.033.009-.039.244-.651.28-.706l.154-.76a1.444,1.444,0,0,1,.024-.437l0-.715L146.024,44l-.154-.682a1.888,1.888,0,0,1-.139-.5c-.066-.045-.051-.036-.081-.121a3.057,3.057,0,0,0-.374-.618c-.148-.2-.368-.3-.471-.507a1.141,1.141,0,0,1-.338-.281c-.115-.018-.29-.136-.437-.184a1.431,1.431,0,0,0-.5-.094.993.993,0,0,0-.8.4ZM138.5,54.544a.928.928,0,0,1,.326,1.828.928.928,0,0,1-.326-1.828Zm.03.383a.542.542,0,0,1,.664.38.546.546,0,1,1-.664-.38Zm2.009-6.47.465-.461a18.258,18.258,0,0,0,1.553-2.392,3.316,3.316,0,0,0,.516-1.9c-.009-.4-.033-.8-.027-1.194s.009-.778.3-.9c.347-.151.727.112.917.259a3.61,3.61,0,0,1,.606.588,4.858,4.858,0,0,1,.386,3.963c-.278.688-.992.956-1.176,1.228.22.045,5.14,0,5.52,0,1.086,0,1.526-.332,1.327,1.433-.1.911-.422.564-1.967.772.253.121.564.29.854.428.341.166.386.268.338.917-.042.543-.214.618-.612.658s-.823.057-1.231.078a7.942,7.942,0,0,0,.92.452c.362.184.437.244.317.98-.09.543-.362.437-.9.425-.413-.009-.89-.06-1.294-.042l.606.274c.5.214.932.274,1.007.655s.057,1.086-.4,1.2a11.813,11.813,0,0,1-2.377.16,14.251,14.251,0,0,1-3.107-.29c-.848-.22-1.62-.645-2.473-.869-.03-.495.006-1.125.006-1.638,0-.537-.006-1.077-.015-1.614C140.588,50.9,140.516,49.033,140.543,48.457Z" transform="translate(310.742 689.338)" fill="#f39b9d" fill-rule="evenodd"/>
  </g>
</svg>
