<svg xmlns="http://www.w3.org/2000/svg" width="176.244" height="60.013" viewBox="0 0 176.244 60.013">
  <g id="logo" transform="translate(-645.449 -480.662)">
    <g id="Group_1" data-name="Group 1" transform="translate(645.449 480.662)">
      <path id="Path_3" data-name="Path 3" d="M108.592,463.433H284.836V517.3a6.166,6.166,0,0,1-6.149,6.148H114.741a6.166,6.166,0,0,1-6.149-6.148Z" transform="translate(-108.592 -463.433)" fill="#db000e" fill-rule="evenodd"/>
      <path id="Path_4" data-name="Path 4" d="M142.772,493.178a9.082,9.082,0,0,1-3.311,2.766,9.955,9.955,0,0,1-4.361.919,9.468,9.468,0,0,1-7.5-3.3,12.755,12.755,0,0,1-2.867-8.67q0-5.585,2.967-8.813a10.428,10.428,0,0,1,8.062-3.226,9.856,9.856,0,0,1,6.357,1.974,8.191,8.191,0,0,1,2.951,5.5h-3.009A5.51,5.51,0,0,0,140,476.767a6.779,6.779,0,0,0-4.235-1.256,7.163,7.163,0,0,0-5.782,2.423q-2.051,2.416-2.048,6.828a10.419,10.419,0,0,0,2.027,6.822,7.632,7.632,0,0,0,10.724.5,7.228,7.228,0,0,0,1.916-5.28v-.3h-7.133v-2.566h9.984V496.23h-2.016l-.666-3.051Zm10.2-17.066v7.73h5.285a6.726,6.726,0,0,0,4.051-.929,3.716,3.716,0,0,0,1.182-3.1,3.362,3.362,0,0,0-1.114-2.867q-1.116-.83-4.119-.834Zm-3.042-2.661h8.839a19.527,19.527,0,0,1,3.163.185,6.254,6.254,0,0,1,1.816.618,5.348,5.348,0,0,1,2.192,2.2,6.927,6.927,0,0,1,.75,3.31,6.015,6.015,0,0,1-.787,3.148,5.343,5.343,0,0,1-2.35,2.048,3.157,3.157,0,0,1,1.9,1.251,6.708,6.708,0,0,1,.7,2.984l.264,3.759a5.909,5.909,0,0,0,.316,1.8,1.533,1.533,0,0,0,.719.845v.634h-3.575a8,8,0,0,1-.608-3.047v-.09l-.189-2.972c-.1-1.526-.429-2.513-.972-2.967s-1.911-.681-4.1-.681H153v9.757h-3.074V473.452Zm25.091,13.305h7.1l-3.527-10.043-3.575,10.043Zm-6.59,9.473,8.465-22.778h3.416L188.8,496.23H185.44l-2.413-6.811h-8.965l-2.429,6.811Zm25.826-12.355h5.19a6.192,6.192,0,0,0,3.78-.866,3.63,3.63,0,0,0,1.072-2.972,3.579,3.579,0,0,0-1.067-2.916,5.616,5.616,0,0,0-3.553-.881h-5.422v7.635Zm-3.106,12.355V473.452h8.391a18.224,18.224,0,0,1,3.109.2,6.223,6.223,0,0,1,1.906.666,5.046,5.046,0,0,1,2.134,2.243,7.664,7.664,0,0,1,.744,3.48,7.274,7.274,0,0,1-.744,3.358,5.707,5.707,0,0,1-2.166,2.318,5.65,5.65,0,0,1-1.926.7,21.767,21.767,0,0,1-3.643.211h-4.7v9.6Zm19.954,0V473.452h3.1V482.8h11.817v-9.346h3.1V496.23h-3.1V485.554H214.206V496.23Zm22.973,0V473.452h3.1V496.23Zm24.009-8.459h3.009a9.293,9.293,0,0,1-2.84,6.627,9.584,9.584,0,0,1-6.812,2.466,9.288,9.288,0,0,1-7.545-3.279q-2.733-3.28-2.73-9.083A12.181,12.181,0,0,1,244.028,476a9.922,9.922,0,0,1,7.719-3.147,9.739,9.739,0,0,1,6.331,2,7.815,7.815,0,0,1,2.856,5.449h-3.042a5.446,5.446,0,0,0-2.053-3.474,6.89,6.89,0,0,0-4.225-1.214,6.433,6.433,0,0,0-5.369,2.429,10.856,10.856,0,0,0-1.911,6.854,10.5,10.5,0,0,0,1.985,6.695,6.372,6.372,0,0,0,5.269,2.524,6.3,6.3,0,0,0,4.583-1.737A6.55,6.55,0,0,0,258.083,487.771Z" transform="translate(-104.792 -461.216)" fill="#fff" fill-rule="evenodd"/>
      <path id="Path_5" data-name="Path 5" d="M147.707,502.464h1.109a1.957,1.957,0,0,0,.613,1.471,2.278,2.278,0,0,0,1.6.547,2.588,2.588,0,0,0,1.555-.415,1.33,1.33,0,0,0,.568-1.132q0-.975-2.135-1.484c-.085-.02-.149-.033-.2-.046a5.6,5.6,0,0,1-2.284-.913,1.832,1.832,0,0,1-.557-1.432,2.253,2.253,0,0,1,.83-1.823,3.35,3.35,0,0,1,2.208-.689,3.191,3.191,0,0,1,2.211.723,2.546,2.546,0,0,1,.819,1.98l-1.1.006a1.8,1.8,0,0,0-.581-1.3,2.109,2.109,0,0,0-1.428-.453,2.259,2.259,0,0,0-1.355.371,1.165,1.165,0,0,0-.508.986q0,.982,2.1,1.465l.478.116.122.027a4.862,4.862,0,0,1,1.82.71,1.91,1.91,0,0,1,.518.7,2.289,2.289,0,0,1,.179.922,2.4,2.4,0,0,1-.88,1.954,3.6,3.6,0,0,1-2.377.729,3.453,3.453,0,0,1-2.407-.781,3.064,3.064,0,0,1-.924-2.241Zm8.291-.421v-5.269h1.158v5.279a2.519,2.519,0,0,0,.527,1.764,2.607,2.607,0,0,0,3.265-.007,2.5,2.5,0,0,0,.54-1.757v-5.279h1.156v5.269a3.084,3.084,0,0,1-3.464,3.454,3.089,3.089,0,0,1-2.387-.862,3.715,3.715,0,0,1-.8-2.592Zm9.9-1.385h1.933a2.308,2.308,0,0,0,1.41-.324,1.349,1.349,0,0,0,.4-1.107,1.333,1.333,0,0,0-.4-1.086,2.087,2.087,0,0,0-1.323-.329H165.9v2.845Zm-1.158,4.6v-8.487h3.127a6.921,6.921,0,0,1,1.159.074,2.325,2.325,0,0,1,.71.248,1.881,1.881,0,0,1,.794.836,2.851,2.851,0,0,1,.278,1.3,2.7,2.7,0,0,1-.278,1.25A2.085,2.085,0,0,1,169,501.605a8.075,8.075,0,0,1-1.358.079H165.9v3.576Zm8.916-4.6h1.935a2.3,2.3,0,0,0,1.408-.324,1.349,1.349,0,0,0,.4-1.107,1.329,1.329,0,0,0-.4-1.086,2.087,2.087,0,0,0-1.323-.329h-2.021v2.845Zm-1.156,4.6v-8.487h3.126a6.948,6.948,0,0,1,1.16.074,2.317,2.317,0,0,1,.709.248,1.883,1.883,0,0,1,.8.836,2.867,2.867,0,0,1,.277,1.3,2.716,2.716,0,0,1-.277,1.25,2.139,2.139,0,0,1-.807.865,2.112,2.112,0,0,1-.719.261,8.058,8.058,0,0,1-1.356.079h-1.752v3.576Zm7.758,0v-8.487h1.169v7.414h4.226v1.074Zm6.641,0v-8.487h6.051v1.05h-4.906v2.539h4.533v.992h-4.533V504.2h5v1.062Zm8.931-7.232v7.232h-1.062v-8.487h1.65l2.106,6.494c.061.183.106.326.135.429s.049.192.065.268c.031-.142.061-.269.093-.379s.063-.219.1-.318l2.177-6.494h1.657v8.487h-1.122v-7.232c-.027.124-.057.248-.093.372s-.07.25-.107.372l-2.184,6.488h-1.086l-2.135-6.488c-.04-.106-.073-.222-.105-.345s-.059-.256-.086-.4Zm9.059,7.232v-8.487h6.052v1.05h-4.907v2.539h4.533v.992h-4.533V504.2h5.006v1.062Zm7.857,0v-8.487h1.264l3.971,6.166c.088.133.164.259.23.379a2.808,2.808,0,0,1,.156.335v-6.88h1.1v8.487H218.21l-4.051-6.252a3.179,3.179,0,0,1-.169-.3c-.053-.1-.1-.212-.147-.329v6.88Zm10.726,0V497.8h-2.68v-1.027h6.517V497.8h-2.68v7.461Z" transform="translate(-99.385 -455.638)" fill="#fff" fill-rule="evenodd"/>
    </g>
  </g>
</svg>
