<svg xmlns="http://www.w3.org/2000/svg" width="200" height="48" viewBox="0 0 200 48">
  <g id="logo" transform="translate(-645.449 -480.662)">
    <path id="Path_3" data-name="Path 3" d="M108.592,463.433h200v43.082c0,2.705-3.139,4.918-6.977,4.918H115.569c-3.837,0-6.977-2.212-6.977-4.918Z" transform="translate(536.857 17.229)" fill="#db000e" fill-rule="evenodd"/>
    <path id="Path_4" data-name="Path 4" d="M145.2,489.109a10.3,10.3,0,0,1-3.757,2.212,15.406,15.406,0,0,1-4.949.735,13.1,13.1,0,0,1-8.508-2.643,8.5,8.5,0,0,1-3.254-6.935,8.4,8.4,0,0,1,3.367-7.049q3.371-2.577,9.149-2.58a14.575,14.575,0,0,1,7.214,1.579,6.352,6.352,0,0,1,3.349,4.4H144.4a4.412,4.412,0,0,0-2.343-2.847,10.092,10.092,0,0,0-4.806-1,9.982,9.982,0,0,0-6.561,1.938,6.7,6.7,0,0,0-2.324,5.461,6.791,6.791,0,0,0,2.3,5.456,9.432,9.432,0,0,0,6.339,1.968,9.778,9.778,0,0,0,5.831-1.571,4.944,4.944,0,0,0,2.174-4.223v-.237h-8.095v-2.052h11.33v9.832h-2.288l-.756-2.441Zm11.57-13.65v6.183h6a10.233,10.233,0,0,0,4.6-.743,2.611,2.611,0,0,0,1.342-2.479,2.378,2.378,0,0,0-1.265-2.293,11.21,11.21,0,0,0-4.674-.667Zm-3.451-2.128h10.031a31.323,31.323,0,0,1,3.589.148,9.263,9.263,0,0,1,2.061.494,5.537,5.537,0,0,1,2.487,1.757,4.258,4.258,0,0,1,.851,2.647,3.76,3.76,0,0,1-.893,2.518,5.9,5.9,0,0,1-2.666,1.638,3.886,3.886,0,0,1,2.152,1,4.164,4.164,0,0,1,.8,2.386l.3,3.007a3.516,3.516,0,0,0,.359,1.44,1.473,1.473,0,0,0,.816.676v.507h-4.057a4.855,4.855,0,0,1-.69-2.437v-.072l-.214-2.377a2.885,2.885,0,0,0-1.1-2.373c-.622-.364-2.169-.544-4.649-.544h-5.681v7.8h-3.488V473.331Zm28.473,10.642h8.06l-4-8.032-4.057,8.032Zm-7.478,7.577,9.606-18.219H187.8l9.635,18.219h-3.812l-2.738-5.447H180.711l-2.756,5.447Zm29.307-9.882h5.889a9.417,9.417,0,0,0,4.29-.693,2.514,2.514,0,0,0,1.217-2.377,2.484,2.484,0,0,0-1.211-2.332,8.478,8.478,0,0,0-4.032-.7h-6.153v6.106ZM200.1,491.55V473.331h9.522a29.214,29.214,0,0,1,3.529.16,9.17,9.17,0,0,1,2.163.533,5.11,5.11,0,0,1,2.421,1.794,4.671,4.671,0,0,1,.844,2.783,4.453,4.453,0,0,1-.844,2.686,5.723,5.723,0,0,1-2.458,1.854,8.259,8.259,0,0,1-2.186.562,34.9,34.9,0,0,1-4.134.169h-5.333v7.677Zm22.644,0V473.331h3.523v7.475h13.409v-7.475H243.2V491.55h-3.523v-8.539H226.266v8.539Zm26.07,0V473.331h3.523V491.55Zm27.245-6.765h3.415a6.657,6.657,0,0,1-3.223,5.3,13.82,13.82,0,0,1-7.73,1.972q-5.463,0-8.562-2.622a9,9,0,0,1-3.1-7.265,8.167,8.167,0,0,1,3.248-6.8q3.245-2.515,8.759-2.517a14.374,14.374,0,0,1,7.185,1.6,6,6,0,0,1,3.241,4.359h-3.452a4.4,4.4,0,0,0-2.33-2.779,10.3,10.3,0,0,0-4.795-.971A8.806,8.806,0,0,0,262.625,477a6.984,6.984,0,0,0-2.169,5.482,6.826,6.826,0,0,0,2.253,5.355,8.627,8.627,0,0,0,5.979,2.019,9.014,9.014,0,0,0,5.2-1.389A4.642,4.642,0,0,0,276.058,484.784Z" transform="translate(543.345 17.117)" fill="#fff" fill-rule="evenodd"/>
    <path id="Path_5" data-name="Path 5" d="M147.707,501.28h1.259a1.391,1.391,0,0,0,.7,1.177,3.312,3.312,0,0,0,1.811.438,3.9,3.9,0,0,0,1.765-.332,1.009,1.009,0,0,0,.645-.905q0-.78-2.423-1.187c-.1-.016-.17-.027-.221-.036a7.977,7.977,0,0,1-2.592-.73,1.282,1.282,0,0,1-.632-1.145,1.65,1.65,0,0,1,.942-1.458,4.945,4.945,0,0,1,2.505-.551,4.672,4.672,0,0,1,2.509.578,1.811,1.811,0,0,1,.929,1.584l-1.246.005a1.31,1.31,0,0,0-.659-1.039,3.1,3.1,0,0,0-1.621-.363,3.394,3.394,0,0,0-1.538.3.89.89,0,0,0-.576.788q0,.786,2.385,1.172l.543.093.139.022a6.971,6.971,0,0,1,2.065.568,1.7,1.7,0,0,1,.587.56,1.376,1.376,0,0,1,.2.737,1.754,1.754,0,0,1-1,1.563,5.323,5.323,0,0,1-2.7.583,5.056,5.056,0,0,1-2.731-.624,2.176,2.176,0,0,1-1.049-1.792Zm9.408-.337v-4.214h1.314v4.222a1.654,1.654,0,0,0,.6,1.411,3.965,3.965,0,0,0,3.705-.006,1.649,1.649,0,0,0,.613-1.405v-4.222h1.312v4.214a2.359,2.359,0,0,1-1,2.063,5.091,5.091,0,0,1-2.933.7,4.425,4.425,0,0,1-2.709-.69,2.449,2.449,0,0,1-.9-2.073Zm11.232-1.108h2.194a3.508,3.508,0,0,0,1.6-.259,1.077,1.077,0,0,0,0-1.754,3.15,3.15,0,0,0-1.5-.263h-2.294v2.276Zm-1.314,3.682v-6.788h3.548a11.1,11.1,0,0,1,1.315.059,3.427,3.427,0,0,1,.806.2,1.9,1.9,0,0,1,.9.669,1.738,1.738,0,0,1,.315,1.037,1.654,1.654,0,0,1-.315,1,2.126,2.126,0,0,1-.915.692,3.079,3.079,0,0,1-.814.208,12.95,12.95,0,0,1-1.541.063h-1.987v2.861Zm10.118-3.682h2.2a3.5,3.5,0,0,0,1.6-.259.934.934,0,0,0,.453-.885.923.923,0,0,0-.451-.869,3.15,3.15,0,0,0-1.5-.263h-2.294v2.276Zm-1.312,3.682v-6.788h3.547a11.139,11.139,0,0,1,1.316.059,3.414,3.414,0,0,1,.8.2,1.907,1.907,0,0,1,.9.669,1.747,1.747,0,0,1,.314,1.037,1.663,1.663,0,0,1-.314,1,2.143,2.143,0,0,1-.915.692,3.09,3.09,0,0,1-.816.208,12.921,12.921,0,0,1-1.539.063h-1.988v2.861Zm8.8,0v-6.788h1.326v5.93h4.8v.859Zm7.537,0v-6.788h6.867v.84H193.48V499.6h5.144v.793H193.48v2.275h5.679v.85Zm10.134-5.784v5.784h-1.206v-6.788h1.873l2.39,5.194c.069.146.121.261.153.343s.056.153.074.214c.035-.114.069-.215.105-.3a2.708,2.708,0,0,1,.111-.254l2.47-5.194h1.88v6.788h-1.273v-5.784c-.031.1-.065.2-.105.3s-.08.2-.122.3l-2.479,5.19h-1.232l-2.423-5.19a2.34,2.34,0,0,1-.119-.276c-.035-.1-.067-.2-.1-.319Zm10.28,5.784v-6.788h6.868v.84h-5.568V499.6h5.144v.793h-5.144v2.275h5.681v.85Zm8.916,0v-6.788h1.434l4.506,4.932c.1.107.186.208.261.3a2.029,2.029,0,0,1,.177.268v-5.5h1.246v6.788h-1.422l-4.6-5a2.51,2.51,0,0,1-.192-.239,2.61,2.61,0,0,1-.167-.263v5.5Zm12.171,0V497.55h-3.041v-.821h7.4v.821H235v5.967Z" transform="translate(552.578 16.835)" fill="#fff" fill-rule="evenodd"/>
  </g>
</svg>
