<svg xmlns="http://www.w3.org/2000/svg" width="182.151" height="62.025" viewBox="0 0 182.151 62.025">
  <g id="Group_2" data-name="Group 2" transform="translate(-733.449 -276.662)">
    <g id="logo" transform="translate(88 -204)">
      <path id="Path_3" data-name="Path 3" d="M108.592,463.433H290.743V519.1a6.372,6.372,0,0,1-6.355,6.355H114.947a6.373,6.373,0,0,1-6.355-6.355Z" transform="translate(536.857 17.229)" fill="#db000e" fill-rule="evenodd"/>
      <path id="Path_4" data-name="Path 4" d="M143.376,493.86a9.387,9.387,0,0,1-3.422,2.859,10.288,10.288,0,0,1-4.507.95,9.785,9.785,0,0,1-7.749-3.415,13.183,13.183,0,0,1-2.963-8.961q0-5.772,3.067-9.109a10.778,10.778,0,0,1,8.332-3.334,10.186,10.186,0,0,1,6.57,2.04,8.466,8.466,0,0,1,3.05,5.687h-3.11a5.7,5.7,0,0,0-2.134-3.679,7.007,7.007,0,0,0-4.377-1.3,7.4,7.4,0,0,0-5.975,2.5q-2.12,2.5-2.117,7.057a10.768,10.768,0,0,0,2.1,7.051,7.888,7.888,0,0,0,11.084.513,7.47,7.47,0,0,0,1.98-5.457v-.306h-7.372v-2.652h10.319v12.7h-2.084l-.688-3.154Zm10.537-17.638v7.989h5.462a6.951,6.951,0,0,0,4.187-.96,3.841,3.841,0,0,0,1.222-3.2,3.474,3.474,0,0,0-1.152-2.964q-1.153-.858-4.257-.862Zm-3.143-2.75h9.136a20.188,20.188,0,0,1,3.269.191,6.467,6.467,0,0,1,1.877.638,5.527,5.527,0,0,1,2.265,2.27,7.16,7.16,0,0,1,.775,3.421,6.217,6.217,0,0,1-.813,3.253,5.521,5.521,0,0,1-2.428,2.117,3.264,3.264,0,0,1,1.96,1.293,6.933,6.933,0,0,1,.725,3.083l.273,3.885a6.107,6.107,0,0,0,.327,1.86,1.584,1.584,0,0,0,.743.873v.655h-3.7a8.265,8.265,0,0,1-.628-3.149v-.093l-.2-3.072c-.1-1.577-.443-2.6-1-3.067s-1.975-.7-4.234-.7h-5.174v10.084H150.77V473.472ZM176.7,487.223h7.34L180.4,476.844l-3.7,10.379Zm-6.81,9.791,8.749-23.542h3.53l8.775,23.542h-3.472l-2.494-7.039h-9.266l-2.51,7.039Zm26.692-12.769h5.364a6.4,6.4,0,0,0,3.907-.9,3.752,3.752,0,0,0,1.108-3.072,3.7,3.7,0,0,0-1.1-3.013,5.8,5.8,0,0,0-3.672-.91h-5.6v7.891Zm-3.21,12.769V473.472h8.672a18.835,18.835,0,0,1,3.214.207,6.429,6.429,0,0,1,1.97.688,5.215,5.215,0,0,1,2.205,2.319,7.921,7.921,0,0,1,.769,3.6,7.518,7.518,0,0,1-.769,3.47,5.9,5.9,0,0,1-2.238,2.4,5.838,5.838,0,0,1-1.991.727,22.489,22.489,0,0,1-3.765.218h-4.857v9.921Zm20.623,0V473.472H217.2v9.659h12.213v-9.659h3.209v23.542h-3.209V485.979H217.2v11.034Zm23.743,0V473.472h3.209v23.542Zm24.813-8.742h3.11a9.605,9.605,0,0,1-2.935,6.849,9.9,9.9,0,0,1-7.04,2.548,9.6,9.6,0,0,1-7.8-3.389q-2.825-3.39-2.822-9.387,0-5.533,2.958-8.791A10.255,10.255,0,0,1,256,472.85a10.066,10.066,0,0,1,6.544,2.062,8.077,8.077,0,0,1,2.952,5.632h-3.143a5.629,5.629,0,0,0-2.122-3.59,7.121,7.121,0,0,0-4.367-1.255,6.648,6.648,0,0,0-5.549,2.51q-1.973,2.513-1.975,7.084a10.855,10.855,0,0,0,2.052,6.919,6.586,6.586,0,0,0,5.446,2.609,6.516,6.516,0,0,0,4.737-1.8A6.769,6.769,0,0,0,262.553,488.271Z" transform="translate(541.325 19.836)" fill="#fff" fill-rule="evenodd"/>
      <path id="Path_5" data-name="Path 5" d="M147.707,502.662h1.147a2.022,2.022,0,0,0,.633,1.521,2.355,2.355,0,0,0,1.65.566,2.675,2.675,0,0,0,1.607-.429,1.375,1.375,0,0,0,.587-1.17q0-1.008-2.206-1.534c-.088-.02-.154-.034-.2-.047a5.788,5.788,0,0,1-2.361-.943,1.893,1.893,0,0,1-.576-1.48,2.328,2.328,0,0,1,.858-1.885,3.462,3.462,0,0,1,2.282-.712,3.3,3.3,0,0,1,2.286.747,2.631,2.631,0,0,1,.846,2.047l-1.135.006a1.86,1.86,0,0,0-.6-1.343,2.18,2.18,0,0,0-1.476-.469,2.335,2.335,0,0,0-1.4.383,1.2,1.2,0,0,0-.525,1.019q0,1.015,2.172,1.514l.494.12.126.028a5.023,5.023,0,0,1,1.881.734,1.974,1.974,0,0,1,.535.724,2.365,2.365,0,0,1,.185.953,2.482,2.482,0,0,1-.909,2.02,3.721,3.721,0,0,1-2.457.753,3.569,3.569,0,0,1-2.487-.807,3.167,3.167,0,0,1-.955-2.316Zm8.569-.435v-5.446h1.2v5.456a2.6,2.6,0,0,0,.545,1.823,2.694,2.694,0,0,0,3.375-.008,2.583,2.583,0,0,0,.558-1.816v-5.456h1.2v5.446a3.188,3.188,0,0,1-3.58,3.57,3.193,3.193,0,0,1-2.467-.891,3.84,3.84,0,0,1-.822-2.679Zm10.23-1.431h2a2.385,2.385,0,0,0,1.457-.335,1.394,1.394,0,0,0,.412-1.144,1.377,1.377,0,0,0-.411-1.122,2.157,2.157,0,0,0-1.367-.34h-2.089v2.94Zm-1.2,4.757v-8.772h3.232a7.149,7.149,0,0,1,1.2.077,2.4,2.4,0,0,1,.734.257,1.944,1.944,0,0,1,.821.864,2.946,2.946,0,0,1,.287,1.341,2.791,2.791,0,0,1-.287,1.292,2.154,2.154,0,0,1-1.576,1.163,8.34,8.34,0,0,1-1.4.082h-1.809v3.7Zm9.215-4.757h2a2.378,2.378,0,0,0,1.456-.335,1.394,1.394,0,0,0,.412-1.144,1.373,1.373,0,0,0-.411-1.122,2.157,2.157,0,0,0-1.367-.34h-2.089v2.94Zm-1.2,4.757v-8.772h3.23a7.177,7.177,0,0,1,1.2.077,2.394,2.394,0,0,1,.733.257,1.946,1.946,0,0,1,.822.864,2.963,2.963,0,0,1,.286,1.341,2.807,2.807,0,0,1-.286,1.292,2.21,2.21,0,0,1-.834.894,2.181,2.181,0,0,1-.743.269,8.323,8.323,0,0,1-1.4.082h-1.811v3.7Zm8.018,0v-8.772h1.208v7.662h4.368v1.11Zm6.864,0v-8.772h6.254v1.085h-5.07v2.624h4.685v1.025h-4.685v2.939h5.172v1.1Zm9.23-7.474v7.474h-1.1v-8.772h1.706l2.177,6.712c.063.189.11.337.139.443s.051.2.068.277c.032-.147.063-.278.1-.392s.065-.226.1-.328l2.25-6.712h1.712v8.772h-1.159v-7.474c-.028.128-.059.257-.1.384s-.073.258-.111.384l-2.257,6.706h-1.122l-2.206-6.706c-.041-.11-.075-.23-.109-.356s-.061-.264-.089-.412Zm9.363,7.474v-8.772h6.255v1.085h-5.071v2.624h4.685v1.025h-4.685v2.939h5.174v1.1Zm8.12,0v-8.772h1.306l4.1,6.372q.136.207.237.392a2.907,2.907,0,0,1,.161.346v-7.11h1.135v8.772h-1.295l-4.187-6.462a3.278,3.278,0,0,1-.175-.309c-.055-.107-.1-.22-.152-.34v7.111Zm11.085,0v-7.711H223.24v-1.061h6.735v1.061h-2.769v7.711Z" transform="translate(547.684 26.396)" fill="#fff" fill-rule="evenodd"/>
    </g>
  </g>
</svg>
