<svg xmlns="http://www.w3.org/2000/svg" width="200" height="75" viewBox="0 0 200 75">
  <g id="logo" transform="translate(-645.449 -480.662)">
    <path id="Path_3" data-name="Path 3" d="M108.592,463.433h200v67.316c0,4.227-3.139,7.684-6.977,7.684H115.569c-3.837,0-6.977-3.457-6.977-7.684Z" transform="translate(536.857 17.229)" fill="#db000e" fill-rule="evenodd"/>
    <path id="Path_4" data-name="Path 4" d="M145.2,498.255a10.612,10.612,0,0,1-3.757,3.457,10.961,10.961,0,0,1-13.457-2.981q-3.253-4.129-3.254-10.835,0-6.98,3.367-11.014a11.307,11.307,0,0,1,9.149-4.031,9.946,9.946,0,0,1,10.563,9.344H144.4a7.053,7.053,0,0,0-2.343-4.448,7.207,7.207,0,0,0-4.806-1.57,7.8,7.8,0,0,0-6.561,3.028q-2.328,3.02-2.324,8.533,0,5.454,2.3,8.525a8.109,8.109,0,0,0,12.17.621,9.579,9.579,0,0,0,2.174-6.6v-.371h-8.095v-3.207h11.33v15.362h-2.288l-.756-3.813Zm11.57-21.328v9.66h6c2.17,0,3.7-.389,4.6-1.161a4.894,4.894,0,0,0,1.342-3.874,4.42,4.42,0,0,0-1.265-3.583q-1.266-1.037-4.674-1.042Zm-3.451-3.326h10.031a20.152,20.152,0,0,1,3.589.232,6.671,6.671,0,0,1,2.061.772,6.414,6.414,0,0,1,2.487,2.745,9.385,9.385,0,0,1,.851,4.136,8.122,8.122,0,0,1-.893,3.934,6.287,6.287,0,0,1-2.666,2.56,3.59,3.59,0,0,1,2.152,1.564,9.071,9.071,0,0,1,.8,3.729l.3,4.7a8.054,8.054,0,0,0,.359,2.25,1.875,1.875,0,0,0,.816,1.056v.792h-4.057a10.86,10.86,0,0,1-.69-3.807v-.113l-.214-3.715c-.115-1.907-.486-3.14-1.1-3.708s-2.169-.851-4.649-.851h-5.681v12.194h-3.488V473.6Zm28.473,16.628h8.06l-4-12.55-4.057,12.55Zm-7.478,11.839,9.606-28.467H187.8l9.635,28.467h-3.812l-2.738-8.512H180.711l-2.756,8.512Zm29.307-15.441h5.889c2.05,0,3.475-.363,4.29-1.082a4.8,4.8,0,0,0,1.217-3.715,4.727,4.727,0,0,0-1.211-3.644,5.938,5.938,0,0,0-4.032-1.1h-6.153v9.541ZM200.1,502.069V473.6h9.522a18.81,18.81,0,0,1,3.529.25,6.643,6.643,0,0,1,2.163.832,6.089,6.089,0,0,1,2.421,2.8,10.4,10.4,0,0,1,.844,4.349,9.862,9.862,0,0,1-.844,4.2,6.907,6.907,0,0,1-2.458,2.9,6.052,6.052,0,0,1-2.186.879,22.461,22.461,0,0,1-4.134.264h-5.333v12Zm22.644,0V473.6h3.523v11.68h13.409V473.6H243.2v28.467h-3.523V488.726H226.266v13.342Zm26.07,0V473.6h3.523v28.467ZM276.058,491.5h3.415a12.2,12.2,0,0,1-3.223,8.281,10.311,10.311,0,0,1-7.73,3.082,10.138,10.138,0,0,1-8.562-4.1q-3.1-4.1-3.1-11.351,0-6.691,3.248-10.63a10.773,10.773,0,0,1,8.759-3.932,10.388,10.388,0,0,1,7.185,2.493,10.1,10.1,0,0,1,3.241,6.81h-3.452a6.958,6.958,0,0,0-2.33-4.342,7.314,7.314,0,0,0-4.795-1.518,7.047,7.047,0,0,0-6.093,3.035q-2.166,3.038-2.169,8.566a14.07,14.07,0,0,0,2.253,8.366,7.007,7.007,0,0,0,5.979,3.154,6.8,6.8,0,0,0,5.2-2.171A8.615,8.615,0,0,0,276.058,491.5Z" transform="translate(543.345 22.351)" fill="#fff" fill-rule="evenodd"/>
    <path id="Path_5" data-name="Path 5" d="M147.707,503.941h1.259a2.571,2.571,0,0,0,.7,1.839,2.443,2.443,0,0,0,1.811.684,2.739,2.739,0,0,0,1.765-.519,1.722,1.722,0,0,0,.645-1.414q0-1.218-2.423-1.854c-.1-.025-.17-.042-.221-.057a6.056,6.056,0,0,1-2.592-1.141,2.415,2.415,0,0,1-.632-1.789,2.94,2.94,0,0,1,.942-2.279,3.574,3.574,0,0,1,2.505-.861,3.415,3.415,0,0,1,2.509.9,3.345,3.345,0,0,1,.929,2.475l-1.246.008a2.353,2.353,0,0,0-.659-1.624,2.253,2.253,0,0,0-1.621-.567,2.393,2.393,0,0,0-1.538.463,1.505,1.505,0,0,0-.576,1.232q0,1.227,2.385,1.831l.543.145.139.034a5.246,5.246,0,0,1,2.065.888,2.387,2.387,0,0,1,.587.875,3.45,3.45,0,0,1-.795,3.594,3.837,3.837,0,0,1-2.7.911,3.694,3.694,0,0,1-2.731-.976,4.028,4.028,0,0,1-1.049-2.8Zm9.408-.527V496.83h1.314v6.6a3.367,3.367,0,0,0,.6,2.2,2.749,2.749,0,0,0,3.705-.009,3.337,3.337,0,0,0,.613-2.2v-6.6h1.312v6.585a4.634,4.634,0,0,1-1,3.224,3.766,3.766,0,0,1-2.933,1.093,3.33,3.33,0,0,1-2.709-1.078,4.962,4.962,0,0,1-.9-3.239Zm11.232-1.731h2.194a2.433,2.433,0,0,0,1.6-.4,1.782,1.782,0,0,0,.453-1.383,1.76,1.76,0,0,0-.451-1.357,2.207,2.207,0,0,0-1.5-.411h-2.294v3.556Zm-1.314,5.753V496.83h3.548a7.139,7.139,0,0,1,1.315.093,2.482,2.482,0,0,1,.806.31,2.27,2.27,0,0,1,.9,1.045,3.868,3.868,0,0,1,.315,1.621,3.661,3.661,0,0,1-.315,1.562,2.569,2.569,0,0,1-.915,1.081,2.252,2.252,0,0,1-.814.326,8.335,8.335,0,0,1-1.541.1h-1.987v4.47Zm10.118-5.753h2.2a2.426,2.426,0,0,0,1.6-.4,1.782,1.782,0,0,0,.453-1.383,1.755,1.755,0,0,0-.451-1.357,2.207,2.207,0,0,0-1.5-.411h-2.294v3.556Zm-1.312,5.753V496.83h3.547a7.167,7.167,0,0,1,1.316.093,2.474,2.474,0,0,1,.8.31,2.273,2.273,0,0,1,.9,1.045,3.891,3.891,0,0,1,.314,1.621,3.683,3.683,0,0,1-.314,1.562,2.589,2.589,0,0,1-.915,1.081,2.26,2.26,0,0,1-.816.326,8.316,8.316,0,0,1-1.539.1h-1.988v4.47Zm8.8,0V496.83h1.326V506.1h4.8v1.342Zm7.537,0V496.83h6.867v1.312H193.48v3.173h5.144v1.24H193.48v3.554h5.679v1.328Zm10.134-9.038v9.038h-1.206V496.83h1.873l2.39,8.116c.069.229.121.408.153.536s.056.239.074.335c.035-.178.069-.337.105-.474s.072-.273.111-.4l2.47-8.116h1.88v10.607h-1.273V498.4c-.031.154-.065.31-.105.465s-.08.312-.122.465l-2.479,8.109h-1.232l-2.423-8.109c-.045-.133-.083-.278-.119-.431s-.067-.32-.1-.5Zm10.28,9.038V496.83h6.868v1.312h-5.568v3.173h5.144v1.24h-5.144v3.554h5.681v1.328Zm8.916,0V496.83h1.434l4.506,7.706c.1.167.186.324.261.474a3.689,3.689,0,0,1,.177.418v-8.6h1.246v10.607h-1.422l-4.6-7.814a4.127,4.127,0,0,1-.192-.374c-.06-.13-.115-.266-.167-.411v8.6Zm12.171,0v-9.324h-3.041V496.83h7.4v1.283H235v9.324Z" transform="translate(552.578 35.241)" fill="#fff" fill-rule="evenodd"/>
  </g>
</svg>
