<svg xmlns="http://www.w3.org/2000/svg" width="179.32" height="61.061" viewBox="0 0 179.32 61.061">
  <g id="Group_1" data-name="Group 1" transform="translate(-645.449 -480.662)">
    <path id="Path_3" data-name="Path 3" d="M108.592,463.433h179.32v54.8a6.273,6.273,0,0,1-6.256,6.256H114.848a6.274,6.274,0,0,1-6.256-6.256Z" transform="translate(536.857 17.229)" fill="#db000e" fill-rule="evenodd"/>
    <path id="Path_4" data-name="Path 4" d="M143.087,493.533a9.241,9.241,0,0,1-3.369,2.814,10.129,10.129,0,0,1-4.437.935,9.633,9.633,0,0,1-7.629-3.362,12.978,12.978,0,0,1-2.917-8.821q0-5.683,3.019-8.967a10.61,10.61,0,0,1,8.2-3.282,10.028,10.028,0,0,1,6.468,2.009,8.334,8.334,0,0,1,3,5.6h-3.062a5.606,5.606,0,0,0-2.1-3.621,6.9,6.9,0,0,0-4.309-1.278,7.288,7.288,0,0,0-5.883,2.465q-2.087,2.459-2.084,6.947a10.6,10.6,0,0,0,2.063,6.941,7.765,7.765,0,0,0,10.912.505,7.354,7.354,0,0,0,1.95-5.372v-.3h-7.258v-2.611h10.159v12.507h-2.051l-.678-3.1ZM153.46,476.17v7.865h5.377a6.843,6.843,0,0,0,4.122-.945,3.781,3.781,0,0,0,1.2-3.154,3.42,3.42,0,0,0-1.134-2.917q-1.135-.845-4.191-.848Zm-3.095-2.707h8.994a19.868,19.868,0,0,1,3.218.189,6.364,6.364,0,0,1,1.848.628,5.441,5.441,0,0,1,2.23,2.235,7.048,7.048,0,0,1,.763,3.367,6.12,6.12,0,0,1-.8,3.2,5.436,5.436,0,0,1-2.391,2.084,3.213,3.213,0,0,1,1.929,1.273,6.825,6.825,0,0,1,.714,3.036l.269,3.825a6.013,6.013,0,0,0,.322,1.831,1.56,1.56,0,0,0,.732.86v.645h-3.638a8.137,8.137,0,0,1-.618-3.1v-.092l-.192-3.024c-.1-1.552-.436-2.557-.989-3.019s-1.945-.693-4.168-.693h-5.093v9.927h-3.127V473.462ZM175.895,487h7.226l-3.589-10.218L175.895,487Zm-6.7,9.638,8.613-23.176h3.475l8.639,23.176H186.5l-2.455-6.93h-9.122l-2.471,6.93Zm26.277-12.571h5.28a6.3,6.3,0,0,0,3.846-.881,3.694,3.694,0,0,0,1.091-3.024A3.642,3.642,0,0,0,204.6,477.2a5.714,5.714,0,0,0-3.615-.9h-5.517v7.768Zm-3.16,12.571V473.462h8.537a18.545,18.545,0,0,1,3.164.2,6.332,6.332,0,0,1,1.939.677,5.134,5.134,0,0,1,2.171,2.283,7.8,7.8,0,0,1,.757,3.541,7.4,7.4,0,0,1-.757,3.416,5.806,5.806,0,0,1-2.2,2.358,5.748,5.748,0,0,1-1.96.715,22.144,22.144,0,0,1-3.707.215h-4.781v9.767Zm20.3,0V473.462h3.159v9.509h12.023v-9.509h3.159v23.176h-3.159V485.775H215.768v10.863Zm23.374,0V473.462h3.159v23.176Zm24.428-8.606h3.062a9.455,9.455,0,0,1-2.89,6.742,9.752,9.752,0,0,1-6.931,2.509,9.45,9.45,0,0,1-7.676-3.336q-2.781-3.337-2.778-9.241a12.394,12.394,0,0,1,2.912-8.654,10.1,10.1,0,0,1,7.853-3.2,9.909,9.909,0,0,1,6.442,2.03,7.952,7.952,0,0,1,2.906,5.544h-3.095a5.541,5.541,0,0,0-2.089-3.535,7.01,7.01,0,0,0-4.3-1.236,6.545,6.545,0,0,0-5.463,2.471q-1.942,2.474-1.945,6.974a10.686,10.686,0,0,0,2.02,6.811,6.483,6.483,0,0,0,5.361,2.568,6.414,6.414,0,0,0,4.663-1.767A6.664,6.664,0,0,0,260.411,488.032Z" transform="translate(541.005 19.649)" fill="#fff" fill-rule="evenodd"/>
    <path id="Path_5" data-name="Path 5" d="M147.707,502.567h1.129a1.991,1.991,0,0,0,.623,1.5,2.318,2.318,0,0,0,1.624.557,2.633,2.633,0,0,0,1.582-.422,1.353,1.353,0,0,0,.578-1.151q0-.992-2.172-1.51c-.087-.02-.152-.034-.2-.047a5.7,5.7,0,0,1-2.324-.929,1.864,1.864,0,0,1-.567-1.457,2.292,2.292,0,0,1,.845-1.855,3.409,3.409,0,0,1,2.246-.7,3.247,3.247,0,0,1,2.25.735,2.59,2.59,0,0,1,.833,2.015l-1.117.006a1.831,1.831,0,0,0-.591-1.322,2.146,2.146,0,0,0-1.453-.461,2.3,2.3,0,0,0-1.379.377,1.185,1.185,0,0,0-.517,1q0,1,2.138,1.491l.486.118.124.028a4.947,4.947,0,0,1,1.852.723,1.943,1.943,0,0,1,.527.713,2.329,2.329,0,0,1,.182.938,2.444,2.444,0,0,1-.895,1.989,3.663,3.663,0,0,1-2.418.742,3.513,3.513,0,0,1-2.449-.794,3.118,3.118,0,0,1-.94-2.28Zm8.435-.429v-5.361h1.178v5.371a2.563,2.563,0,0,0,.537,1.795,2.652,2.652,0,0,0,3.322-.008,2.543,2.543,0,0,0,.549-1.787v-5.371H162.9v5.361a3.138,3.138,0,0,1-3.525,3.514,3.143,3.143,0,0,1-2.428-.877,3.78,3.78,0,0,1-.809-2.637Zm10.071-1.409h1.967a2.348,2.348,0,0,0,1.434-.329,1.372,1.372,0,0,0,.406-1.126,1.356,1.356,0,0,0-.4-1.1,2.123,2.123,0,0,0-1.346-.334h-2.056v2.895Zm-1.178,4.683v-8.635h3.181a7.04,7.04,0,0,1,1.179.075,2.364,2.364,0,0,1,.723.253,1.914,1.914,0,0,1,.808.851,2.9,2.9,0,0,1,.283,1.32,2.748,2.748,0,0,1-.283,1.272,2.121,2.121,0,0,1-1.551,1.145,8.215,8.215,0,0,1-1.381.08h-1.781v3.639Zm9.072-4.683h1.968a2.341,2.341,0,0,0,1.433-.329,1.372,1.372,0,0,0,.406-1.126,1.352,1.352,0,0,0-.4-1.1,2.123,2.123,0,0,0-1.346-.334h-2.056v2.895Zm-1.177,4.683v-8.635h3.18a7.068,7.068,0,0,1,1.18.075,2.356,2.356,0,0,1,.721.253,1.916,1.916,0,0,1,.809.851,2.917,2.917,0,0,1,.282,1.32,2.763,2.763,0,0,1-.282,1.272,2.176,2.176,0,0,1-.821.88,2.148,2.148,0,0,1-.732.265,8.2,8.2,0,0,1-1.38.08h-1.782v3.639Zm7.894,0v-8.635h1.189v7.543h4.3v1.092Zm6.757,0v-8.635h6.157v1.068h-4.991v2.583h4.612v1.009h-4.612v2.894h5.092v1.081Zm9.087-7.358v7.358h-1.081v-8.635h1.679l2.143,6.608c.062.186.108.332.137.436s.05.195.067.273c.031-.145.062-.274.094-.386s.064-.222.1-.323l2.215-6.608h1.686v8.635h-1.141v-7.358c-.028.126-.058.253-.094.378s-.072.254-.109.378l-2.222,6.6h-1.1l-2.172-6.6c-.04-.108-.074-.226-.107-.351s-.06-.26-.088-.406Zm9.217,7.358v-8.635h6.158v1.068h-4.993v2.583h4.612v1.009h-4.612v2.894h5.093v1.081Zm7.994,0v-8.635h1.286l4.04,6.273c.089.136.167.264.234.386a2.859,2.859,0,0,1,.158.341v-7h1.117v8.635H219.44l-4.122-6.361a3.233,3.233,0,0,1-.172-.3c-.054-.106-.1-.216-.15-.334v7Zm10.913,0v-7.591h-2.726v-1.045h6.63v1.045H225.97v7.591Z" transform="translate(546.908 25.739)" fill="#fff" fill-rule="evenodd"/>
  </g>
</svg>
