<svg id="logo-dekstop" xmlns="http://www.w3.org/2000/svg" width="224.621" height="189.199" viewBox="0 0 224.621 189.199">
  <g id="Group_100" data-name="Group 100">
    <rect id="Rectangle_67" data-name="Rectangle 67" width="224.621" height="189.199" fill="red"/>
  </g>
  <g id="Group_9" data-name="Group 9" transform="translate(38.382 72.028)">
    <g id="logo_dekstop" data-name="logo dekstop">
      <path id="Path_62" data-name="Path 62" d="M9.181,771.524H153.575v44.129a5.048,5.048,0,0,1-5.037,5.037H14.218a5.048,5.048,0,0,1-5.037-5.037Z" transform="translate(-9.181 -771.524)" fill="red" fill-rule="evenodd"/>
      <path id="Path_63" data-name="Path 63" d="M27.867,790.459a7.412,7.412,0,0,1-2.713,2.266,8.156,8.156,0,0,1-3.57.753,7.754,7.754,0,0,1-6.145-2.709,10.449,10.449,0,0,1-2.349-7.1,10.26,10.26,0,0,1,2.433-7.22,8.546,8.546,0,0,1,6.605-2.642,8.07,8.07,0,0,1,5.209,1.618,6.711,6.711,0,0,1,2.416,4.506H27.286a4.5,4.5,0,0,0-1.689-2.914,5.557,5.557,0,0,0-3.47-1.033,5.875,5.875,0,0,0-4.736,1.986,8.4,8.4,0,0,0-1.681,5.6,8.538,8.538,0,0,0,1.664,5.589,5.608,5.608,0,0,0,4.573,2.015,5.633,5.633,0,0,0,4.21-1.61,5.912,5.912,0,0,0,1.572-4.327v-.243H21.885v-2.1h8.181v10.071H28.415l-.548-2.5Zm8.353-13.98v6.333h4.331a5.5,5.5,0,0,0,3.319-.765,3.043,3.043,0,0,0,.97-2.537,2.757,2.757,0,0,0-.916-2.35,5.961,5.961,0,0,0-3.374-.681ZM33.728,774.3h7.245a15.985,15.985,0,0,1,2.588.15,5.114,5.114,0,0,1,1.488.506,4.441,4.441,0,0,1,1.8,1.8,5.682,5.682,0,0,1,.615,2.709,4.892,4.892,0,0,1-.648,2.579,4.375,4.375,0,0,1-1.923,1.681,2.6,2.6,0,0,1,1.555,1.024,5.559,5.559,0,0,1,.573,2.446l.217,3.077a4.787,4.787,0,0,0,.259,1.476,1.243,1.243,0,0,0,.589.694v.518H45.153a6.547,6.547,0,0,1-.5-2.5v-.071l-.155-2.437a3.521,3.521,0,0,0-.794-2.433c-.451-.372-1.568-.556-3.361-.556h-4.1v7.993H33.728V774.3Zm20.56,10.9H60.1l-2.889-8.232L54.288,785.2Zm-5.4,7.759L55.822,774.3h2.8l6.96,18.662H62.824l-1.977-5.581H53.5l-1.99,5.581Zm21.157-10.121H74.3a5.059,5.059,0,0,0,3.1-.711A3.766,3.766,0,0,0,77.4,777.3a4.606,4.606,0,0,0-2.914-.723H70.044v6.258ZM67.5,792.959V774.3h6.873a14.957,14.957,0,0,1,2.55.163,5.1,5.1,0,0,1,1.559.547,4.117,4.117,0,0,1,1.747,1.84,6.224,6.224,0,0,1,.61,2.847,5.912,5.912,0,0,1-.61,2.751,4.577,4.577,0,0,1-3.353,2.475,17.628,17.628,0,0,1-2.985.175h-3.85v7.864Zm16.35,0V774.3h2.542v7.659h9.682V774.3h2.542v18.662H96.076v-8.746H86.394v8.746Zm18.821,0V774.3h2.542v18.662Zm19.669-6.931h2.466a7.606,7.606,0,0,1-2.329,5.43,7.844,7.844,0,0,1-5.581,2.019,7.6,7.6,0,0,1-6.179-2.684,11.3,11.3,0,0,1-2.237-7.441,9.988,9.988,0,0,1,2.341-6.969,8.135,8.135,0,0,1,6.325-2.579,7.978,7.978,0,0,1,5.188,1.634,6.41,6.41,0,0,1,2.341,4.465h-2.492a4.466,4.466,0,0,0-1.685-2.847,5.648,5.648,0,0,0-3.461-1,5.274,5.274,0,0,0-4.4,1.99,8.908,8.908,0,0,0-1.568,5.614,8.607,8.607,0,0,0,1.63,5.489,5.6,5.6,0,0,0,8.068.644A5.362,5.362,0,0,0,122.342,786.028Z" transform="translate(3.248 -764.273)" fill="#fff" fill-rule="evenodd"/>
      <path id="Path_64" data-name="Path 64" d="M18.651,784.387h.907a1.6,1.6,0,0,0,.506,1.2,1.846,1.846,0,0,0,1.3.451,2.1,2.1,0,0,0,1.275-.343,1.087,1.087,0,0,0,.464-.928q0-.8-1.747-1.212l-.159-.037a4.616,4.616,0,0,1-1.873-.748,1.5,1.5,0,0,1-.456-1.175,1.85,1.85,0,0,1,.681-1.492,2.729,2.729,0,0,1,1.806-.564,2.625,2.625,0,0,1,1.814.589,2.087,2.087,0,0,1,.669,1.626l-.9,0a1.454,1.454,0,0,0-.477-1.066,1.724,1.724,0,0,0-1.171-.372,1.849,1.849,0,0,0-1.108.305.945.945,0,0,0-.418.807q0,.8,1.722,1.2l.393.1.1.021a3.976,3.976,0,0,1,1.488.585,1.484,1.484,0,0,1,.426.573,1.9,1.9,0,0,1,.146.753,1.972,1.972,0,0,1-.719,1.605,2.97,2.97,0,0,1-1.948.594,2.818,2.818,0,0,1-1.973-.64,2.507,2.507,0,0,1-.757-1.835Zm6.793-.342v-4.319h.949v4.327a2.059,2.059,0,0,0,.431,1.442,1.728,1.728,0,0,0,1.338.468,1.75,1.75,0,0,0,1.338-.472,2.044,2.044,0,0,0,.443-1.438v-4.327h.945v4.319a2.527,2.527,0,0,1-2.834,2.83,2.531,2.531,0,0,1-1.956-.711,3.027,3.027,0,0,1-.652-2.119Zm8.11-1.137h1.584a1.9,1.9,0,0,0,1.154-.263,1.109,1.109,0,0,0,.326-.907,1.094,1.094,0,0,0-.326-.89,1.706,1.706,0,0,0-1.083-.268H33.554v2.328Zm-.949,3.771v-6.952h2.563a5.366,5.366,0,0,1,.949.063,1.907,1.907,0,0,1,.581.2,1.524,1.524,0,0,1,.652.686,2.351,2.351,0,0,1,.226,1.062,2.245,2.245,0,0,1-.226,1.028,1.708,1.708,0,0,1-1.25.92,6.9,6.9,0,0,1-1.112.062H33.554v2.931Zm7.3-3.771h1.584a1.887,1.887,0,0,0,1.154-.263,1.11,1.11,0,0,0,.33-.907,1.094,1.094,0,0,0-.326-.89,1.719,1.719,0,0,0-1.087-.268H39.909v2.328Zm-.949,3.771v-6.952h2.563a5.333,5.333,0,0,1,.949.063,1.933,1.933,0,0,1,.585.2,1.537,1.537,0,0,1,.648.686,2.351,2.351,0,0,1,.23,1.062,2.246,2.246,0,0,1-.23,1.028,1.708,1.708,0,0,1-1.25.92,6.832,6.832,0,0,1-1.112.062H39.909v2.931Zm6.359,0v-6.952h.957V785.8h3.461v.878Zm5.443,0v-6.952h4.958v.861H51.7v2.078H55.41v.815H51.7v2.329h4.1v.869Zm7.316-5.924v5.924h-.87v-6.952h1.35l1.727,5.322c.05.15.088.267.109.351s.042.155.054.218c.025-.113.05-.218.075-.31s.054-.18.084-.259l1.781-5.322h1.359v6.952h-.92v-5.924c-.025.1-.046.2-.075.305s-.059.2-.088.305l-1.789,5.313h-.89l-1.752-5.313c-.029-.088-.059-.184-.084-.285s-.05-.209-.071-.326Zm7.42,5.924v-6.952h4.958v.861H66.438v2.078H70.15v.815H66.438v2.329h4.1v.869Zm6.438,0v-6.952h1.037l3.252,5.05c.071.112.134.213.188.313a1.719,1.719,0,0,1,.125.272v-5.635h.9v6.952H76.413l-3.319-5.121a2.773,2.773,0,0,1-.138-.242c-.042-.088-.084-.176-.121-.272v5.635Zm8.787,0v-6.112H78.528v-.841h5.338v.841H81.672v6.112Z" transform="translate(20.938 -746.023)" fill="#fff" fill-rule="evenodd"/>
    </g>
  </g>
</svg>
