<svg xmlns="http://www.w3.org/2000/svg" width="200" height="60" viewBox="0 0 200 60">
  <g id="logo" transform="translate(-645.449 -480.662)">
    <path id="Path_3" data-name="Path 3" d="M108.592,463.433h200v53.853c0,3.382-3.139,6.147-6.977,6.147H115.569c-3.837,0-6.977-2.765-6.977-6.147Z" transform="translate(536.857 17.229)" fill="#db000e" fill-rule="evenodd"/>
    <path id="Path_4" data-name="Path 4" d="M145.2,493.174a10.119,10.119,0,0,1-3.757,2.765,12.6,12.6,0,0,1-4.949.919,11.432,11.432,0,0,1-8.508-3.3,11.819,11.819,0,0,1-3.254-8.668,11.622,11.622,0,0,1,3.367-8.811q3.371-3.222,9.149-3.225a12.235,12.235,0,0,1,7.214,1.974,7.972,7.972,0,0,1,3.349,5.5H144.4a5.42,5.42,0,0,0-2.343-3.558,8.44,8.44,0,0,0-4.806-1.256,8.676,8.676,0,0,0-6.561,2.422,9.437,9.437,0,0,0-2.324,6.827,9.587,9.587,0,0,0,2.3,6.82,8.248,8.248,0,0,0,6.339,2.46,8.388,8.388,0,0,0,5.831-1.964,6.754,6.754,0,0,0,2.174-5.279v-.3h-8.095v-2.565h11.33v12.29h-2.288l-.756-3.051Zm11.57-17.062v7.728h6a8.451,8.451,0,0,0,4.6-.929,3.5,3.5,0,0,0,1.342-3.1,3.177,3.177,0,0,0-1.265-2.867q-1.266-.83-4.674-.834Zm-3.451-2.66h10.031a25.107,25.107,0,0,1,3.589.185,7.77,7.77,0,0,1,2.061.617,5.757,5.757,0,0,1,2.487,2.2,6.259,6.259,0,0,1,.851,3.309,5.463,5.463,0,0,1-.893,3.147,5.893,5.893,0,0,1-2.666,2.048,3.635,3.635,0,0,1,2.152,1.251,6.079,6.079,0,0,1,.8,2.983l.3,3.758a5.287,5.287,0,0,0,.359,1.8,1.606,1.606,0,0,0,.816.845v.634h-4.057a7.2,7.2,0,0,1-.69-3.046v-.09l-.214-2.972c-.115-1.525-.486-2.512-1.1-2.967s-2.169-.68-4.649-.68h-5.681v9.755h-3.488V473.452Zm28.473,13.3h8.06l-4-10.04-4.057,10.04Zm-7.478,9.471,9.606-22.773H187.8l9.635,22.773h-3.812l-2.738-6.809H180.711l-2.756,6.809Zm29.307-12.353h5.889a7.78,7.78,0,0,0,4.29-.866,3.407,3.407,0,0,0,1.217-2.972,3.361,3.361,0,0,0-1.211-2.915,7.033,7.033,0,0,0-4.032-.881h-6.153v7.633ZM200.1,496.225V473.452h9.522a23.421,23.421,0,0,1,3.529.2,7.71,7.71,0,0,1,2.163.666,5.388,5.388,0,0,1,2.421,2.243,6.907,6.907,0,0,1,.844,3.479,6.564,6.564,0,0,1-.844,3.357,6.07,6.07,0,0,1-2.458,2.317,6.977,6.977,0,0,1-2.186.7,27.977,27.977,0,0,1-4.134.211h-5.333v9.6Zm22.644,0V473.452h3.523V482.8h13.409v-9.344H243.2v22.773h-3.523V485.551H226.266v10.674Zm26.07,0V473.452h3.523v22.773Zm27.245-8.457h3.415a8.813,8.813,0,0,1-3.223,6.625,11.772,11.772,0,0,1-7.73,2.465q-5.463,0-8.562-3.278t-3.1-9.081a11.309,11.309,0,0,1,3.248-8.5,13.841,13.841,0,0,1,15.944-1.151,7.583,7.583,0,0,1,3.241,5.448h-3.452a5.372,5.372,0,0,0-2.33-3.473,8.592,8.592,0,0,0-4.795-1.214,7.735,7.735,0,0,0-6.093,2.428,9.948,9.948,0,0,0-2.169,6.852,9.655,9.655,0,0,0,2.253,6.693,7.627,7.627,0,0,0,5.979,2.523,7.716,7.716,0,0,0,5.2-1.737A6.189,6.189,0,0,0,276.058,487.768Z" transform="translate(543.345 19.443)" fill="#fff" fill-rule="evenodd"/>
    <path id="Path_5" data-name="Path 5" d="M147.707,502.463h1.259a1.851,1.851,0,0,0,.7,1.471,2.808,2.808,0,0,0,1.811.547,3.238,3.238,0,0,0,1.765-.415,1.286,1.286,0,0,0,.645-1.131q0-.975-2.423-1.483c-.1-.02-.17-.033-.221-.046a6.841,6.841,0,0,1-2.592-.913,1.725,1.725,0,0,1-.632-1.432,2.153,2.153,0,0,1,.942-1.823,4.156,4.156,0,0,1,2.505-.689,3.945,3.945,0,0,1,2.509.723,2.409,2.409,0,0,1,.929,1.98l-1.246.006a1.716,1.716,0,0,0-.659-1.3,2.613,2.613,0,0,0-1.621-.453,2.823,2.823,0,0,0-1.538.371,1.129,1.129,0,0,0-.576.986q0,.982,2.385,1.465l.543.116.139.027a5.956,5.956,0,0,1,2.065.71,1.948,1.948,0,0,1,.587.7,2.054,2.054,0,0,1,.2.921,2.293,2.293,0,0,1-1,1.954,4.469,4.469,0,0,1-2.7.729,4.269,4.269,0,0,1-2.731-.781,2.9,2.9,0,0,1-1.049-2.24Zm9.408-.421v-5.268h1.314v5.278a2.323,2.323,0,0,0,.6,1.764,3.275,3.275,0,0,0,3.705-.007,2.309,2.309,0,0,0,.613-1.756v-5.278h1.312v5.268a3.248,3.248,0,0,1-1,2.579,4.322,4.322,0,0,1-2.933.874,3.784,3.784,0,0,1-2.709-.862,3.431,3.431,0,0,1-.9-2.591Zm11.232-1.385h2.194a2.9,2.9,0,0,0,1.6-.324,1.266,1.266,0,0,0,.453-1.107,1.252,1.252,0,0,0-.451-1.086,2.613,2.613,0,0,0-1.5-.329h-2.294v2.845Zm-1.314,4.6v-8.485h3.548a8.886,8.886,0,0,1,1.315.074,2.88,2.88,0,0,1,.806.248,2.008,2.008,0,0,1,.9.836,2.569,2.569,0,0,1,.315,1.3,2.437,2.437,0,0,1-.315,1.25,2.257,2.257,0,0,1-.915.865,2.6,2.6,0,0,1-.814.261,10.383,10.383,0,0,1-1.541.079h-1.987v3.576Zm10.118-4.6h2.2a2.89,2.89,0,0,0,1.6-.324,1.266,1.266,0,0,0,.453-1.107,1.248,1.248,0,0,0-.451-1.086,2.613,2.613,0,0,0-1.5-.329h-2.294v2.845Zm-1.312,4.6v-8.485h3.547a8.921,8.921,0,0,1,1.316.074,2.87,2.87,0,0,1,.8.248,2.011,2.011,0,0,1,.9.836,2.584,2.584,0,0,1,.314,1.3,2.451,2.451,0,0,1-.314,1.25,2.275,2.275,0,0,1-.915.865,2.608,2.608,0,0,1-.816.261,10.359,10.359,0,0,1-1.539.079h-1.988v3.576Zm8.8,0v-8.485h1.326v7.412h4.8v1.073Zm7.537,0v-8.485h6.867v1.05H193.48v2.538h5.144v.992H193.48V504.2h5.679v1.062Zm10.134-7.23v7.23h-1.206v-8.485h1.873l2.39,6.493c.069.183.121.326.153.429s.056.191.074.268c.035-.142.069-.269.105-.379s.072-.219.111-.317l2.47-6.493h1.88v8.485h-1.273v-7.23c-.031.123-.065.248-.105.372s-.08.25-.122.372l-2.479,6.487h-1.232l-2.423-6.487a3.35,3.35,0,0,1-.119-.345c-.035-.124-.067-.256-.1-.4Zm10.28,7.23v-8.485h6.868v1.05h-5.568v2.538h5.144v.992h-5.144V504.2h5.681v1.062Zm8.916,0v-8.485h1.434l4.506,6.164c.1.133.186.259.261.379a2.669,2.669,0,0,1,.177.335v-6.878h1.246v8.485h-1.422l-4.6-6.251a3.117,3.117,0,0,1-.192-.3,3.458,3.458,0,0,1-.167-.329v6.878Zm12.171,0V497.8h-3.041v-1.026h7.4V497.8H235v7.459Z" transform="translate(552.578 25.016)" fill="#fff" fill-rule="evenodd"/>
  </g>
</svg>
