<svg xmlns="http://www.w3.org/2000/svg" width="15.947" height="15.295" viewBox="0 0 15.947 15.295">
  <g id="love-product" transform="translate(-236.635 -732.93)">
    <path id="Path_72" data-name="Path 72" d="M64.948,45.428v.652c.012.03.048.449.057.528a7.2,7.2,0,0,0,.368,1.424,10.377,10.377,0,0,0,.766,1.617,14.567,14.567,0,0,0,.941,1.439c.416.546.863,1.131,1.324,1.641.151.163.718.811.854.941l.287.3c.09.1.193.211.29.3l.3.3c.1.1.208.193.3.3.127.139.434.407.6.579l.311.29c.109.094.205.184.308.29.217.214.766.676.938.86.069.069.229.2.308.284h.027l.609-.564c.287-.244.633-.594.923-.848s.636-.618.914-.866c.38-.341,1.493-1.505,1.882-1.964l.685-.793a14.628,14.628,0,0,0,2.494-4.021,8.578,8.578,0,0,0,.281-.9,6.516,6.516,0,0,0,.139-.739,1.168,1.168,0,0,1,.03-.277v-.778a3.088,3.088,0,0,1-.051-.4c-.021-.124-.048-.256-.075-.377a3.423,3.423,0,0,0-.983-1.716,2.915,2.915,0,0,0-.5-.4,4.014,4.014,0,0,0-1.267-.531c-.136-.03-.244-.048-.38-.069-.069-.009-.365-.033-.392-.045h-.561a2.765,2.765,0,0,1-.353.042,4.964,4.964,0,0,0-.965.238A4.105,4.105,0,0,0,73.5,43.477a3.646,3.646,0,0,0-.455.742c-.039.078-.072.19-.118.268-.039-.069-.081-.193-.115-.271a3.875,3.875,0,0,0-1.261-1.508,4.5,4.5,0,0,0-1.644-.724c-.259-.057-.516-.072-.646-.1l-.033-.012h-.706l-.389.057a3.961,3.961,0,0,0-1.858.8,1.314,1.314,0,0,0-.121.106,3.467,3.467,0,0,0-1.077,1.822,5.836,5.836,0,0,0-.109.664Z" transform="translate(171.687 691.058)" fill="#f39b9d" fill-rule="evenodd"/>
  </g>
</svg>
