<svg xmlns="http://www.w3.org/2000/svg" width="19.865" height="19.05" viewBox="0 0 19.865 19.05">
  <g id="love-mobile" transform="translate(-24.671 -445.529)">
    <path id="Path_79" data-name="Path 79" d="M180.063,46.3v.811c.015.038.06.56.071.657a8.969,8.969,0,0,0,.458,1.773,12.92,12.92,0,0,0,.954,2.014,18.842,18.842,0,0,0,1.172,1.792c.518.68,1.074,1.409,1.649,2.044.188.2.894,1.011,1.063,1.172l.357.376c.113.128.24.263.361.379l.379.368c.128.124.259.24.379.368.158.173.541.507.751.721l.387.361c.135.116.255.229.387.361.267.267.95.841,1.165,1.071.086.086.289.244.387.353h.034l.755-.7c.357-.3.789-.74,1.15-1.056s.793-.77,1.138-1.078c.473-.424,1.86-1.875,2.344-2.446l.853-.988a18.22,18.22,0,0,0,3.107-5.008,10.69,10.69,0,0,0,.349-1.127,8.119,8.119,0,0,0,.173-.92,1.284,1.284,0,0,1,.041-.346v-.969a3.28,3.28,0,0,1-.068-.5c-.026-.154-.06-.319-.094-.47a4.263,4.263,0,0,0-1.225-2.138,3.63,3.63,0,0,0-.627-.5,4.927,4.927,0,0,0-1.578-.661c-.169-.038-.3-.06-.473-.086-.083-.011-.451-.041-.488-.056h-.7a3.444,3.444,0,0,1-.44.053,6.183,6.183,0,0,0-1.2.3,5.113,5.113,0,0,0-2.325,1.649,4.715,4.715,0,0,0-.567.924c-.045.1-.09.237-.146.334-.049-.086-.1-.24-.143-.338a4.85,4.85,0,0,0-1.567-1.878,5.647,5.647,0,0,0-2.051-.9c-.323-.071-.642-.09-.8-.124l-.045-.015h-.879l-.485.071a4.949,4.949,0,0,0-2.314,1c-.06.045-.09.079-.15.131a4.319,4.319,0,0,0-1.341,2.269,6.507,6.507,0,0,0-.131.826Z" transform="translate(-155.392 403.657)" fill="#f39b9d" fill-rule="evenodd"/>
  </g>
</svg>
