<svg xmlns="http://www.w3.org/2000/svg" width="22.02" height="21.12" viewBox="0 0 22.02 21.12">
  <g id="Group_85" data-name="Group 85" transform="translate(-270.458 -174.621)">
    <path id="Path_5" data-name="Path 5" d="M64.948,46.782v.9c.017.042.067.621.079.729a9.944,9.944,0,0,0,.508,1.966,14.328,14.328,0,0,0,1.058,2.232,20.115,20.115,0,0,0,1.3,1.987c.575.754,1.191,1.562,1.828,2.266.208.225.991,1.12,1.179,1.3l.4.416c.125.142.267.292.4.421l.421.408c.142.137.287.267.421.408.175.192.6.562.833.8l.429.4c.15.129.283.254.425.4.3.3,1.058.933,1.3,1.187.1.1.317.271.425.392h.038l.841-.779c.4-.337.875-.82,1.274-1.17s.879-.854,1.262-1.2c.525-.471,2.062-2.078,2.6-2.711l.945-1.1a20.2,20.2,0,0,0,3.444-5.552,11.847,11.847,0,0,0,.387-1.249,9,9,0,0,0,.192-1.02,1.612,1.612,0,0,1,.042-.383V46.762a4.265,4.265,0,0,1-.071-.554c-.029-.171-.067-.354-.1-.521a4.727,4.727,0,0,0-1.358-2.37,4.025,4.025,0,0,0-.7-.554,5.543,5.543,0,0,0-1.749-.733c-.187-.042-.337-.067-.525-.1-.1-.012-.5-.046-.541-.062h-.775a3.818,3.818,0,0,1-.487.058,6.855,6.855,0,0,0-1.333.329,5.668,5.668,0,0,0-2.578,1.828,5.034,5.034,0,0,0-.629,1.025c-.054.108-.1.262-.162.371-.054-.1-.112-.267-.158-.375a5.351,5.351,0,0,0-1.741-2.082,6.21,6.21,0,0,0-2.27-1c-.358-.079-.712-.1-.891-.137l-.046-.017h-.975l-.537.079a5.469,5.469,0,0,0-2.566,1.108,1.812,1.812,0,0,0-.167.146,4.788,4.788,0,0,0-1.487,2.516,8.061,8.061,0,0,0-.15.916Z" transform="translate(205.51 132.749)" fill="#f39b9d" fill-rule="evenodd"/>
  </g>
</svg>
