<svg xmlns="http://www.w3.org/2000/svg" width="35.02" height="35.33" viewBox="0 0 35.02 35.33">
  <g id="search" transform="translate(-544.913 -444.411)">
    <path id="Path_112" data-name="Path 112" d="M133.439,219.9H165.8v35.33h-32.36a2.668,2.668,0,0,1-2.66-2.66v-30.01A2.668,2.668,0,0,1,133.439,219.9Z" transform="translate(414.134 224.513)" fill="#db000e" fill-rule="evenodd"/>
    <path id="Path_113" data-name="Path 113" d="M141.73,223.547a5.275,5.275,0,0,1,.975,6.761l2.239,1.973a.843.843,0,0,1,.078,1.192h0a.848.848,0,0,1-1.192.078l-2.239-1.973a5.274,5.274,0,1,1,.139-8.03Zm.587,3.7a4.108,4.108,0,0,0-1.38-2.8,4.063,4.063,0,1,0,1.38,2.8Z" transform="translate(424.082 235.101)" fill="#fff" fill-rule="evenodd"/>
  </g>
</svg>
