<svg xmlns="http://www.w3.org/2000/svg" width="23.738" height="23.949" viewBox="0 0 23.738 23.949">
  <g id="Group_93" data-name="Group 93" transform="translate(-59.349 -789.12)">
    <path id="Path_81" data-name="Path 81" d="M132.582,123.724h21.935v23.949H132.582a1.808,1.808,0,0,1-1.8-1.8V125.527A1.808,1.808,0,0,1,132.582,123.724Z" transform="translate(-71.43 665.396)" fill="#db000e" fill-rule="evenodd"/>
    <path id="Path_82" data-name="Path 82" d="M138.908,126.945a3.581,3.581,0,0,1,.661,4.587l1.518,1.337a.571.571,0,0,1,.053.808h0a.571.571,0,0,1-.808.049l-1.518-1.334a3.574,3.574,0,1,1,.094-5.447Zm.4,2.509a2.765,2.765,0,0,0-4.835-1.653,2.764,2.764,0,1,0,4.147,3.655A2.787,2.787,0,0,0,139.306,129.455Z" transform="translate(-65.392 671.821)" fill="#fff" fill-rule="evenodd"/>
  </g>
</svg>
