<svg xmlns="http://www.w3.org/2000/svg" width="26.318" height="26.551" viewBox="0 0 26.318 26.551">
  <g id="Group_93" data-name="Group 93" transform="translate(-544.756 -515.66)">
    <path id="Path_3" data-name="Path 3" d="M132.778,123.724H157.1v26.551H132.778a2,2,0,0,1-2-2V125.723A2,2,0,0,1,132.778,123.724Z" transform="translate(413.977 391.936)" fill="#db000e" fill-rule="evenodd"/>
    <path id="Path_4" data-name="Path 4" d="M139.553,127.042a3.97,3.97,0,0,1,.733,5.085l1.683,1.483a.633.633,0,0,1,.058.9h0a.633.633,0,0,1-.9.054l-1.683-1.479a3.962,3.962,0,1,1,.1-6.039Zm.441,2.782a3.066,3.066,0,0,0-5.36-1.833,3.064,3.064,0,1,0,4.6,4.052A3.09,3.09,0,0,0,139.995,129.824Z" transform="translate(420.91 399.312)" fill="#fff" fill-rule="evenodd"/>
  </g>
</svg>
