<svg xmlns="http://www.w3.org/2000/svg" width="24.35" height="22.32" viewBox="0 0 24.35 22.32">
  <g id="share-card" transform="translate(-589 -312.27)">
    <path id="Path_151" data-name="Path 151" d="M141.648,187.045h7.324c0,.856-.3,1.59-1.488,1.59h-5.209v15.041h17.561v-4.745c0-1.565.481-1.917,1.35-1.917v7.4a.933.933,0,0,1-.21.6.677.677,0,0,1-.509.248H141.648a.684.684,0,0,1-.513-.248.952.952,0,0,1-.21-.6V187.9a.932.932,0,0,1,.21-.6.675.675,0,0,1,.513-.252ZM157.379,183c-.157-.1-.292-.059-.288.13v3.746c-5.437.3-8.065,4.573-9.525,9.494-.075.252-.3,2.173.894.772,2.154-2.538,4.882-4.833,8.631-4.825v2.53c0,.113.142.294.31.172l7.727-5.634a.317.317,0,0,0,0-.537Q161.254,185.923,157.379,183Z" transform="translate(448.075 129.324)" fill="#f39b9d" fill-rule="evenodd"/>
  </g>
</svg>
