<svg xmlns="http://www.w3.org/2000/svg" width="22.911" height="17.823" viewBox="0 0 22.911 17.823">
  <g id="share-desktop" transform="translate(-1441.129 -826.674)">
    <path id="Path_153" data-name="Path 153" d="M141.605,186.219H148.5c0,.683-.278,1.27-1.4,1.27h-4.9V199.5h16.523V195.71c0-1.25.452-1.531,1.27-1.531v5.91a.675.675,0,0,1-.677.68H141.605a.675.675,0,0,1-.68-.68V186.9a.681.681,0,0,1,.68-.68Zm14.8-3.23c-.147-.084-.275-.047-.271.1v2.992c-5.116.238-7.588,3.652-8.962,7.581-.07.2-.278,1.735.841.617,2.027-2.027,4.593-3.859,8.121-3.853v2.02a.189.189,0,0,0,.292.137l7.27-4.5a.234.234,0,0,0,0-.429Q160.053,185.323,156.406,182.99Z" transform="translate(1300.204 643.728)" fill="#f39b9d" fill-rule="evenodd"/>
  </g>
</svg>
